<svg xmlns="http://www.w3.org/2000/svg" viewBox="0 0 30 30"><g id="language" fill="currentColor"><path d="M15,6.5A6.52,6.52,0,1,0,21.5,13,6.53,6.53,0,0,0,15,6.5ZM19.38,12h-1.6a12.82,12.82,0,0,0-.54-2.89A4.48,4.48,0,0,1,19.38,12Zm-5.19,0A8.7,8.7,0,0,1,15,8.85a8.87,8.87,0,0,1,.8,3.17Zm1.59,2a8.93,8.93,0,0,1-.8,3.17A8.76,8.76,0,0,1,14.19,14ZM12.72,9.13A13.4,13.4,0,0,0,12.18,12h-1.6A4.48,4.48,0,0,1,12.72,9.13ZM10.58,14h1.6a13.52,13.52,0,0,0,.54,2.89A4.53,4.53,0,0,1,10.58,14Zm6.66,2.89A12.93,12.93,0,0,0,17.78,14h1.6A4.53,4.53,0,0,1,17.24,16.91Z"/><path d="M23.77,3H6.23A3.21,3.21,0,0,0,3,6.19v13.5a3.21,3.21,0,0,0,3.23,3.19H8.5v2.79a1,1,0,0,0,.56.89l.67.34a1,1,0,0,0,.44.1,1,1,0,0,0,.55-.16l6.06-4h7A3.21,3.21,0,0,0,27,19.69V6.19A3.21,3.21,0,0,0,23.77,3ZM25,19.69a1.21,1.21,0,0,1-1.23,1.19H16.48a1,1,0,0,0-.55.16L10.5,24.59V21.88a1,1,0,0,0-1-1H6.23A1.21,1.21,0,0,1,5,19.69V6.19A1.21,1.21,0,0,1,6.23,5H23.77A1.21,1.21,0,0,1,25,6.19Z"/></g></svg>
