<!DOCTYPE svg PUBLIC "-//W3C//DTD SVG 1.1//EN" "http://www.w3.org/Graphics/SVG/1.1/DTD/svg11.dtd">
<svg version="1.1" id="Layer_1" xmlns="http://www.w3.org/2000/svg" xmlns:xlink="http://www.w3.org/1999/xlink" x="0px" y="0px"
	 width="210px" height="95px" viewBox="27.5 13 210 95" enable-background="new 27.5 13 210 95" xml:space="preserve">
<path d="M68,36h-5.5H57c-12.1,0-22,9.9-22,22v5.5V69v22h22h5.5H68c12.1,0,22-9.9,22-22v-5.5V58V36H68z M79,60.2v3.3
	v3.3C79,74.061,73.061,80,65.8,80h-3.3h-3.3H46v-7.425h0.056c0.257-1.251,1.37-2.2,2.694-2.2l9.299-1.061l6.989-9.029l-16.288,1.29
	c-1.376,0-2.514-1.028-2.709-2.353C46.546,52.414,52.27,47,59.2,47h3.3h3.3H79V60.2z"/>
<path d="M123,60h-8v31h-11V60h-6v-5.5l6-2.5v-2.883c0-2.508,0.652-4.893,1.262-6.545
	c0.61-1.652,1.477-2.971,2.602-3.955c1.125-0.984,2.484-1.682,4.078-2.092c1.594-0.41,3.387-0.615,5.379-0.615
	c2.156,0,3.973,0.17,5.449,0.51s2.73,0.721,3.762,1.143L124,45.438c-0.727-0.258-1.488-0.492-2.285-0.703
	c-0.797-0.211-1.734-0.316-2.812-0.316c-1.406,0-2.396,0.451-2.971,1.354c-0.575,0.903-0.861,2.057-0.861,3.463L115,52h8V60z"/>
<path d="M141,91h-11V36h11V91z"/>
<path d="M207.996,91.246c-2.812,0-5.402-0.41-7.77-1.23c-2.369-0.82-4.406-2.057-6.117-3.709
	c-1.711-1.651-3.041-3.738-3.99-6.258s-1.424-5.479-1.424-8.877c0-3.445,0.434-6.457,1.301-9.035
	c0.867-2.578,2.08-4.729,3.639-6.451s3.434-3.018,5.625-3.885c2.191-0.867,4.623-1.301,7.295-1.301c2.603,0,4.951,0.393,7.049,1.178
	c2.099,0.785,3.879,1.939,5.345,3.463c1.465,1.524,2.59,3.393,3.375,5.607c0.784,2.214,1.178,4.752,1.178,7.611v5.203h-23.978
	c0.047,1.5,0.287,2.854,0.722,4.061c0.434,1.207,1.043,2.227,1.827,3.059c0.785,0.832,1.734,1.471,2.849,1.916
	s2.386,0.668,3.813,0.668c1.195,0,2.326-0.063,3.394-0.192c1.067-0.13,2.104-0.322,3.11-0.58c1.008-0.259,4.98-1.478,6.013-1.992
	v7.969c-0.938,0.492-1.881,0.908-2.83,1.248c-0.949,0.341-1.951,0.628-3.006,0.861c-1.056,0.233-2.19,0.403-3.41,0.51
	C210.786,91.195,209.449,91.246,207.996,91.246z M206.625,58.129c-1.898,0-3.475,0.668-4.729,2.004s-1.976,3.434-2.162,6.293h13.676
	c-0.023-1.195-0.176-2.297-0.457-3.305c-0.281-1.008-0.703-1.881-1.266-2.619c-0.563-0.738-1.267-1.318-2.109-1.74
	C208.734,58.34,207.75,58.129,206.625,58.129z"/>
<path d="M183.16,70.82c0,3.281-0.416,6.188-1.248,8.719s-2.027,4.664-3.586,6.398
	c-1.559,1.733-3.457,3.053-5.695,3.955c-2.238,0.901-4.752,1.354-7.541,1.354c-2.602,0-4.992-0.451-7.172-1.354
	c-2.18-0.903-4.061-2.222-5.643-3.955c-1.582-1.734-2.818-3.867-3.709-6.398c-0.892-2.531-1.336-5.438-1.336-8.719
	c0-3.258,0.416-6.152,1.248-8.685c0.832-2.532,2.026-4.658,3.586-6.381c1.559-1.723,3.451-3.029,5.678-3.92s4.746-1.336,7.559-1.336
	c2.602,0,4.992,0.445,7.172,1.336s4.062,2.197,5.644,3.92c1.582,1.723,2.817,3.85,3.709,6.381
	C182.716,64.667,183.16,67.562,183.16,70.82z M158.199,70.82c0,3.914,0.551,6.861,1.652,8.842c1.101,1.98,2.895,2.971,5.379,2.971
	c2.461,0,4.242-0.996,5.344-2.988s1.652-4.934,1.652-8.824c0-3.913-0.552-6.838-1.652-8.771c-1.102-1.933-2.906-2.9-5.414-2.9
	c-2.461,0-4.236,0.967-5.326,2.9S158.199,66.906,158.199,70.82z"/>
</svg>
