<svg xmlns="http://www.w3.org/2000/svg" width="200" height="200" viewBox="0 0 200 200"><path fill="#1B75BB" d="M73.77 7.016L92.02 25.26 73.772 43.514 55.522 25.27z"/><path fill="#D91C5C" d="M112.622 10.572h29.392v29.386h-29.392z"/><path fill="#00A69C" d="M34.693 25.27c0 8.803-7.139 15.933-15.945 15.933-8.804 0-15.939-7.13-15.939-15.933 0-8.808 7.136-15.94 15.939-15.94 8.806-.001 15.945 7.132 15.945 15.94"/><path fill="#E52329" d="M181.134 42.067l-14.488-8.505.11-16.796 14.613-8.303 14.487 8.506-.117 16.8z"/><path fill="#1B75BB" d="M18.75 58.504L37.001 76.75 18.753 95.003.503 76.758z"/><path fill="#D91C5C" d="M112.622 62.062h29.392v29.386h-29.392z"/><path fill="#00A69C" d="M197.194 75.079c0 8.804-7.14 15.934-15.945 15.934-8.807 0-15.94-7.129-15.94-15.934 0-8.808 7.134-15.939 15.94-15.939s15.945 7.131 15.945 15.939"/><path fill="#E52329" d="M73.65 93.557l-14.488-8.504.116-16.8 14.608-8.3 14.488 8.505-.115 16.799z"/><path fill="#1B75BB" d="M181.24 107.195l18.25 18.245-18.249 18.253-18.25-18.244z"/><path fill="#D91C5C" d="M59.074 110.754h29.391v29.382H59.074z"/><path fill="#00A69C" d="M143.257 123.771c0 8.801-7.141 15.934-15.943 15.934s-15.938-7.133-15.938-15.934c0-8.811 7.136-15.941 15.938-15.941s15.943 7.131 15.943 15.941"/><path fill="#E52329" d="M18.632 142.248l-14.487-8.509.114-16.795 14.611-8.298 14.487 8.502-.116 16.8z"/><path fill="#1B75BB" d="M181.251 192.982L163 174.731l18.251-18.249 18.249 18.245z"/><path fill="#D91C5C" d="M4.054 160.039h29.391v29.385H4.054z"/><path fill="#00A69C" d="M89.71 173.056c0 8.804-7.139 15.934-15.943 15.934-8.803 0-15.941-7.13-15.941-15.934 0-8.81 7.138-15.939 15.941-15.939 8.805-.001 15.943 7.129 15.943 15.939"/><path fill="#E52329" d="M127.198 191.533l-14.487-8.505.113-16.799 14.613-8.3 14.485 8.505-.114 16.801z"/><path fill="#404041" d="M12.991 27.981c20.721 2.397 43.046-1.846 62.579 7.081 10.033 4.583 17.622 12.459 23.226 21.79 5.024 8.358 8.88 17.313 15.312 24.754l1.346-1.744c-5.016-2.886-9.97-5.864-15.583-7.437-1.38-.387-1.965 1.755-.592 2.141 5.433 1.521 10.204 4.424 15.054 7.214 1.138.653 2.151-.812 1.347-1.746-7.112-8.225-11.136-18.436-16.958-27.515-5.623-8.769-13.75-15.593-23.205-19.911-19.368-8.85-41.994-4.471-62.525-6.846-1.421-.165-1.405 2.058-.001 2.219"/><path fill="#404041" d="M115.299 81.781c.658-4.292.703-8.615.703-12.948.002-1.432-2.219-1.432-2.219 0-.002 4.125.001 8.27-.625 12.358-.215 1.399 1.923 2.002 2.141.59M72.935 173.78c30.377-1.353 59.117-16.019 82.019-35.479 10.969-9.316 19.484-20.771 23.851-34.551 2.321-7.32 2.637-15.041 4.718-22.352 1.286-4.503 3.104-10.72.595-15.095-.227-.392-.743-.628-1.187-.483-4.318 1.424-7.431 6.032-9.569 9.808.64.27 1.281.54 1.923.809 1.687-4.945 5.485-8.134 8.236-12.404l-1.646.212c3.927 3.207 6.424 7.726 9.37 11.777.789 1.084 2.614.037 1.813-1.06-3.044-4.186-5.638-8.887-9.698-12.203-.535-.436-1.255-.397-1.648.213-2.894 4.485-6.679 7.713-8.454 12.906-.391 1.141 1.341 1.831 1.919.809a32 32 0 0 1 5.011-6.655c4.183-4.264 2.98 2.892 2.568 5.421-.46 2.866-1.543 5.598-1.938 8.464-.51 3.72-1.158 7.418-1.926 11.093-3.252 15.557-10.845 28.255-22.384 39.091-10.314 9.691-22.617 17.101-34.941 23.919-14.882 8.237-31.659 12.902-48.63 13.657-1.353.066-1.359 2.166-.002 2.103"/><path fill="#404041" d="M185.117 180.166c-10.879-24.59-25.938-47.341-46.525-64.864-11.163-9.502-23.799-17.566-36.239-25.274C91.15 83.086 78.3 74.143 64.942 72.384c-.637-.084-1.067.57-1.111 1.111-.419 5.139 2.942 10.494 6.32 14.106.533.568 1.719.338 1.856-.491.837-5.052-2.856-8.074-4.374-12.542-1.464-4.305 2.862-4.042 5.596-4.665 3.525-.804 7.26-2.079 10.657-3.332 1.331-.491.755-2.637-.592-2.141-3.812 1.406-7.938 2.711-11.895 3.613-1.578.359-4.196.157-5.248 1.708-3.979 5.878 4.674 10.964 3.714 16.767l1.855-.49c-3-3.205-6.045-7.982-5.672-12.535l-1.108 1.109c7.153.943 13.855 4.507 20.123 7.921 6.392 3.48 12.646 7.211 18.816 11.067 12.163 7.605 24.38 15.654 35.227 25.07 19.501 16.933 33.711 39.162 44.094 62.623.579 1.309 2.492.178 1.917-1.117"/><path fill="#404041" d="M17.393 125.073c5.792-15.121 12.461-29.615 22.72-42.262 9.367-11.544 22.1-19.615 35.358-25.988 10.552-5.068 21.208-8.627 32.369-11.967 8.587-2.571 19.89-5.74 24.664-14.092a1.126 1.126 0 0 0-.398-1.52c-2.5-1.45-5.012-2.028-7.89-2.149v2.22c1.7-.055 3.382-.26 5.08-.249 4.823.03 1.742 5.562.953 7.17-1.34 2.726-3.082 5.332-3.771 8.326-.326 1.392 1.815 1.982 2.141.588 1.132-4.91 5.714-9.089 5.528-14.319-.179-5.022-6.84-3.839-9.932-3.736-1.431.049-1.426 2.161 0 2.22 2.466.104 4.628.603 6.771 1.846-.138-.504-.268-1.012-.399-1.518-5.371 9.392-19.715 12.055-29.25 14.799-11.395 3.278-22.351 7.922-32.865 13.405-12.771 6.66-23.454 15.401-32.488 26.59-9.468 11.725-15.393 26.097-20.733 40.046-.513 1.338 1.634 1.913 2.142.59M69.603 127.219c13.831.086 27.52 2.979 39.131 10.775 5.904 3.969 10.725 9.344 14.524 15.317 4.45 6.993 4.812 15.829 6.552 23.712.711-.195 1.424-.394 2.141-.59-1.516-3.649-3.23-7.209-6.282-9.816-.783-.664-2.234-.055-1.858 1.083 1.175 3.54 3.881 6.814 7.438 8.101.42.15 1.076-.086 1.255-.509 1.445-3.41 3.194-6.648 4.109-10.259.351-1.389-1.791-1.975-2.142-.59-.741 2.914-2.035 5.574-3.28 8.301-.813 1.781-4.964-4.812-5.239-5.634-.614.36-1.233.719-1.854 1.08 2.758 2.349 4.346 5.541 5.713 8.833.535 1.294 2.455.843 2.141-.59-1.84-8.324-2.569-16.657-6.776-24.245-3.391-6.12-8.792-11.323-14.363-15.435-11.772-8.688-26.85-11.664-41.208-11.756-1.434-.01-1.432 2.214-.002 2.222"/></svg>