<svg xmlns="http://www.w3.org/2000/svg">
    <!-- Icons -->
    <symbol id="icon-activities" viewBox="0 0 20 20">
        <path d="M9.936 19.5L1.74 14.691l.069-9.499L10.066.5l8.194 4.809-.067 9.499z"/>
    </symbol>

    <symbol id="icon-insights" viewBox="-0.503 1.458 19.995 20.014">
        <path d="M17.942 11.517a8.44 8.44 0 0 1-8.441 8.441 8.44 8.44 0 0 1-8.441-8.441c0-4.675 3.779-8.455 8.441-8.455 4.662 0 8.441 3.779 8.441 8.455"/>
    </symbol>

    <symbol id="icon-practices" viewBox="0 0 20 20">
        <path d="M10 .499l9.504 9.5-9.5 9.504-9.504-9.5z"/>
    </symbol>

    <symbol id="icon-tools" viewBox="-0.55 1.438 20 20">
        <path d="M2.192 4.281h14.52v14.526H2.192z"/>
    </symbol>

    <symbol id="icon-language">
        <path d="M15,6.5A6.52,6.52,0,1,0,21.5,13,6.53,6.53,0,0,0,15,6.5ZM19.38,12h-1.6a12.82,12.82,0,0,0-.54-2.89A4.48,4.48,0,0,1,19.38,12Zm-5.19,0A8.7,8.7,0,0,1,15,8.85a8.87,8.87,0,0,1,.8,3.17Zm1.59,2a8.93,8.93,0,0,1-.8,3.17A8.76,8.76,0,0,1,14.19,14ZM12.72,9.13A13.4,13.4,0,0,0,12.18,12h-1.6A4.48,4.48,0,0,1,12.72,9.13ZM10.58,14h1.6a13.52,13.52,0,0,0,.54,2.89A4.53,4.53,0,0,1,10.58,14Zm6.66,2.89A12.93,12.93,0,0,0,17.78,14h1.6A4.53,4.53,0,0,1,17.24,16.91Z"/><path d="M23.77,3H6.23A3.21,3.21,0,0,0,3,6.19v13.5a3.21,3.21,0,0,0,3.23,3.19H8.5v2.79a1,1,0,0,0,.56.89l.67.34a1,1,0,0,0,.44.1,1,1,0,0,0,.55-.16l6.06-4h7A3.21,3.21,0,0,0,27,19.69V6.19A3.21,3.21,0,0,0,23.77,3ZM25,19.69a1.21,1.21,0,0,1-1.23,1.19H16.48a1,1,0,0,0-.55.16L10.5,24.59V21.88a1,1,0,0,0-1-1H6.23A1.21,1.21,0,0,1,5,19.69V6.19A1.21,1.21,0,0,1,6.23,5H23.77A1.21,1.21,0,0,1,25,6.19Z"/>
    </symbol>

    <symbol id="icon-menu">
        <path d="m3 5h14a1 1 0 0 0 0-2h-14a1 1 0 0 0 0 2z"/>
        <path d="m17 9h-14a1 1 0 0 0 0 2h14a1 1 0 0 0 0-2z"/>
        <path d="m17 15h-14a1 1 0 0 0 0 2h14a1 1 0 0 0 0-2z"/>
    </symbol>

    <symbol id="icon-dimensions" viewBox="0 0 612 792">
        <path d="M546.017,352.631c-12.194,0-23.514,3.737-32.885,10.123L423.7,242.092c16.734-15.177,27.261-37.08,27.261-61.397
            c0-45.707-37.185-82.892-82.892-82.892s-82.892,37.185-82.892,82.892c0,1.915,0.089,3.81,0.217,5.693l-113.616,7.251
            c-3.445-24.326-24.344-43.03-49.611-43.03c-27.681,0-50.118,22.432-50.118,50.118c0,20.654,12.501,38.391,30.35,46.062
            l-13.677,45.77c-5.368-1.346-10.98-2.069-16.76-2.069c-38.032,0-68.974,30.938-68.974,68.966c0,38.03,30.941,68.97,68.974,68.97
            c5.313,0,10.48-0.624,15.451-1.767l25.666,92.423c-20.5,4.808-35.773,23.195-35.773,45.163c0,25.632,20.78,46.412,46.405,46.412
            c19.755,0,36.612-12.347,43.311-29.738l170.96,40.013c-1.103,4.651-1.704,9.493-1.704,14.477c0,34.617,28.167,62.78,62.788,62.78
            c34.617,0,62.78-28.163,62.78-62.78c0-20.821-10.196-39.298-25.848-50.727l80.613-123.047c8.641,5.039,18.683,7.939,29.406,7.939
            c32.294,0,58.476-26.175,58.476-58.47C604.493,378.807,578.311,352.631,546.017,352.631z M158.935,534.049l53.014-52.666
            l39.392,33.231l-85.195,30.842C164.299,541.295,161.861,537.458,158.935,534.049z M216.121,477.237l14.485-14.39
            c14.4,13.328,33.657,21.484,54.825,21.484c11.702,0,22.812-2.509,32.85-6.985l5.426,11.069l-66.01,23.896L216.121,477.237z
            M165.3,226.242l73.515,36.363l-39.597,23.891l-40.021-52.003C161.503,231.967,163.546,229.2,165.3,226.242z M244.537,265.436
            l73.911,36.559l-8.692,24.577c-7.677-2.423-15.846-3.735-24.324-3.735c-17.43,0-33.557,5.542-46.754,14.935l-36.158-46.984
            L244.537,265.436z M488.123,402.949l-97.105,1.246l-1.985-67.288L492.3,387.986C490.274,392.688,488.854,397.707,488.123,402.949z
            M384.003,404.285l-17.844,0.229c0.003-0.31,0.023-0.616,0.023-0.927c0-34.482-21.618-63.898-52.036-75.478l8.501-24.038
            l59.264,29.313L384.003,404.285z M324.726,298.195l14.126-39.941c9.093,3.437,18.936,5.332,29.217,5.332
            c3.993,0,7.915-0.301,11.759-0.849l1.877,63.642L324.726,298.195z M334.545,256.478l-14.019,39.641l-69.701-34.477l51.22-30.903
            C310.482,241.844,321.653,250.752,334.545,256.478z M233.775,341.529c-13.094,10.912-22.668,25.892-26.809,42.996l-66.929-14.045
            c0.58-3.592,0.892-7.272,0.892-11.025c0-9.939-2.13-19.386-5.932-27.931l62.198-37.526L233.775,341.529z M139.035,375.459
            l66.897,14.039c-0.806,4.578-1.25,9.28-1.25,14.089c0,20.978,8.004,40.083,21.121,54.439l-14.904,14.806l-84.415-71.214
            C132.388,394.001,136.729,385.124,139.035,375.459z M326.347,493.801l42.459,86.617c-5.895,3.256-11.209,7.434-15.757,12.335
            l-90.092-76.004L326.347,493.801z M374.133,577.799l-42.171-86.031l54.045-19.565l2.986,101.239
            C383.8,574.283,378.82,575.763,374.133,577.799z M329.322,486.383l-5.705-11.639c23.975-12.891,40.673-37.539,42.402-66.228
            l18.103-0.232l1.701,57.646L329.322,486.383z M391.135,408.194l96.571-1.239c-0.096,1.372-0.163,2.752-0.163,4.148
            c0,5.943,0.893,11.677,2.542,17.08l-97.321,35.232L391.135,408.194z M507.657,366.993c-5.032,4.38-9.306,9.601-12.603,15.452
            l-106.228-52.544l-2.02-68.478c11.647-2.702,22.359-7.856,31.56-14.902L507.657,366.993z M285.996,192.209
            c1.742,12.475,6.264,24.067,12.929,34.13l-53.821,32.473l-76.982-38.077c2.674-6.131,4.167-12.895,4.167-20.008
            c0-0.422-0.021-0.839-0.032-1.258L285.996,192.209z M108.237,248.868c4.424,1.278,9.095,1.978,13.931,1.978
            c12.43,0,23.796-4.539,32.557-12.035l39.17,50.897l-61.268,36.966c-8.135-14.994-21.673-26.636-37.977-32.333L108.237,248.868z
            M93.377,425.004c11.354-3.719,21.421-10.302,29.334-18.904l84.016,70.878l-52.589,52.244
            c-8.147-7.082-18.781-11.379-30.426-11.379c-1.516,0-3.013,0.078-4.492,0.221L93.377,425.004z M168.855,574.992
            c0.818-3.451,1.264-7.047,1.264-10.748c0-4.585-0.675-9.011-1.914-13.193l88.393-32l92.67,78.179
            c-4.083,5.313-7.332,11.294-9.56,17.75L168.855,574.992z M430.827,581.283c-9.325-5.494-20.177-8.66-31.76-8.66
            c-1.032,0-2.058,0.028-3.079,0.078l-3.038-103.012l99.161-35.898c4.131,9.803,10.862,18.236,19.324,24.453L430.827,581.283z"/>
        <path fill="none" stroke="#000000" stroke-miterlimit="10" d="M546.017,352.631c-12.194,0-23.514,3.737-32.885,10.123
            L423.7,242.092c16.734-15.177,27.261-37.08,27.261-61.397c0-45.707-37.185-82.892-82.892-82.892s-82.892,37.185-82.892,82.892
            c0,1.915,0.089,3.81,0.217,5.693l-113.616,7.251c-3.445-24.326-24.344-43.03-49.611-43.03c-27.681,0-50.118,22.432-50.118,50.118
            c0,20.654,12.501,38.391,30.35,46.062l-13.677,45.77c-5.368-1.346-10.98-2.069-16.76-2.069c-38.032,0-68.974,30.938-68.974,68.966
            c0,38.03,30.941,68.97,68.974,68.97c5.313,0,10.48-0.624,15.451-1.767l25.666,92.423c-20.5,4.808-35.773,23.195-35.773,45.163
            c0,25.632,20.78,46.412,46.405,46.412c19.755,0,36.612-12.347,43.311-29.738l170.96,40.013c-1.103,4.651-1.704,9.493-1.704,14.477
            c0,34.617,28.167,62.78,62.788,62.78c34.617,0,62.78-28.163,62.78-62.78c0-20.821-10.196-39.298-25.848-50.727l80.613-123.047
            c8.641,5.039,18.683,7.939,29.406,7.939c32.294,0,58.476-26.175,58.476-58.47C604.493,378.807,578.311,352.631,546.017,352.631z
            M158.935,534.049l53.014-52.666l39.392,33.231l-85.195,30.842C164.299,541.295,161.861,537.458,158.935,534.049z
            M216.121,477.237l14.485-14.39c14.4,13.328,33.657,21.484,54.825,21.484c11.702,0,22.812-2.509,32.85-6.985l5.426,11.069
            l-66.01,23.896L216.121,477.237z M165.3,226.242l73.515,36.363l-39.597,23.891l-40.021-52.003
            C161.503,231.967,163.546,229.2,165.3,226.242z M244.537,265.436l73.911,36.559l-8.692,24.577
            c-7.677-2.423-15.846-3.735-24.324-3.735c-17.43,0-33.557,5.542-46.754,14.935l-36.158-46.984L244.537,265.436z M488.123,402.949
            l-97.105,1.246l-1.985-67.288L492.3,387.986C490.274,392.688,488.854,397.707,488.123,402.949z M384.003,404.285l-17.844,0.229
            c0.003-0.31,0.023-0.616,0.023-0.927c0-34.482-21.618-63.898-52.036-75.478l8.501-24.038l59.264,29.313L384.003,404.285z
            M324.726,298.195l14.126-39.941c9.093,3.437,18.936,5.332,29.217,5.332c3.993,0,7.915-0.301,11.759-0.849l1.877,63.642
            L324.726,298.195z M334.545,256.478l-14.019,39.641l-69.701-34.477l51.22-30.903C310.482,241.844,321.653,250.752,334.545,256.478
            z M233.775,341.529c-13.094,10.912-22.668,25.892-26.809,42.996l-66.929-14.045c0.58-3.592,0.892-7.272,0.892-11.025
            c0-9.939-2.13-19.386-5.932-27.931l62.198-37.526L233.775,341.529z M139.035,375.459l66.897,14.039
            c-0.806,4.578-1.25,9.28-1.25,14.089c0,20.978,8.004,40.083,21.121,54.439l-14.904,14.806l-84.415-71.214
            C132.388,394.001,136.729,385.124,139.035,375.459z M326.347,493.801l42.459,86.617c-5.895,3.256-11.209,7.434-15.757,12.335
            l-90.092-76.004L326.347,493.801z M374.133,577.799l-42.171-86.031l54.045-19.565l2.986,101.239
            C383.8,574.283,378.82,575.763,374.133,577.799z M329.322,486.383l-5.705-11.639c23.975-12.891,40.673-37.539,42.402-66.228
            l18.103-0.232l1.701,57.646L329.322,486.383z M391.135,408.194l96.571-1.239c-0.096,1.372-0.163,2.752-0.163,4.148
            c0,5.943,0.893,11.677,2.542,17.08l-97.321,35.232L391.135,408.194z M507.657,366.993c-5.032,4.38-9.306,9.601-12.603,15.452
            l-106.228-52.544l-2.02-68.478c11.647-2.702,22.359-7.856,31.56-14.902L507.657,366.993z M285.996,192.209
            c1.742,12.475,6.264,24.067,12.929,34.13l-53.821,32.473l-76.982-38.077c2.674-6.131,4.167-12.895,4.167-20.008
            c0-0.422-0.021-0.839-0.032-1.258L285.996,192.209z M108.237,248.868c4.424,1.278,9.095,1.978,13.931,1.978
            c12.43,0,23.796-4.539,32.557-12.035l39.17,50.897l-61.268,36.966c-8.135-14.994-21.673-26.636-37.977-32.333L108.237,248.868z
            M93.377,425.004c11.354-3.719,21.421-10.302,29.334-18.904l84.016,70.878l-52.589,52.244
            c-8.147-7.082-18.781-11.379-30.426-11.379c-1.516,0-3.013,0.078-4.492,0.221L93.377,425.004z M168.855,574.992
            c0.818-3.451,1.264-7.047,1.264-10.748c0-4.585-0.675-9.011-1.914-13.193l88.393-32l92.67,78.179
            c-4.083,5.313-7.332,11.294-9.56,17.75L168.855,574.992z M430.827,581.283c-9.325-5.494-20.177-8.66-31.76-8.66
            c-1.032,0-2.058,0.028-3.079,0.078l-3.038-103.012l99.161-35.898c4.131,9.803,10.862,18.236,19.324,24.453L430.827,581.283z"/>
    </symbol>

    <!-- Logos  -->
    <symbol id="logo-github" viewBox="0 0 32.58 31.77">
        <g>
            <path class="cls-1" d="M16.29,0a16.29,16.29,0,0,0-5.15,31.75c.82.15,1.11-.36,1.11-.79s0-1.41,0-2.77C7.7,29.18,6.74,26,6.74,26a4.36,4.36,0,0,0-1.81-2.39c-1.47-1,.12-1,.12-1a3.43,3.43,0,0,1,2.49,1.68,3.48,3.48,0,0,0,4.74,1.36,3.46,3.46,0,0,1,1-2.18c-3.62-.41-7.42-1.81-7.42-8a6.3,6.3,0,0,1,1.67-4.37,5.94,5.94,0,0,1,.16-4.31s1.37-.44,4.48,1.67a15.41,15.41,0,0,1,8.16,0c3.11-2.11,4.47-1.67,4.47-1.67A5.91,5.91,0,0,1,25,11.07a6.3,6.3,0,0,1,1.67,4.37c0,6.26-3.81,7.63-7.44,8a3.85,3.85,0,0,1,1.11,3c0,2.18,0,3.94,0,4.47s.29.94,1.12.78A16.29,16.29,0,0,0,16.29,0Z"/>
        </g>
    </symbol>

    <symbol id="logo-idrc" viewBox="0 0 61.387 77.161">
        <g fill="var(--idg-fill)">
            <path d="M21.701 12.809c6.365 10.428 14.345 23.502 19.237 34.619 2.625-3.069 6.783-7.631 10.449-11.338V10.161H20.086l1.615 2.648z"/>
            <path d="M42.243 50.534c1.541 3.866 2.62 7.419 3.018 10.443.454 3.457-.195 6.477-1.783 8.285-.965 1.102-2.21 1.684-3.598 1.684-1.236 0-2.506-.635-3.576-1.787-1.674-1.803-2.512-4.474-2.3-7.328.364-4.902 2.73-9.046 4.806-11.798-4.7-11.134-13.068-24.844-19.67-35.661-.885-1.45-1.746-2.86-2.565-4.211H1.387v65h50V40.393c-3.537 3.694-7.154 7.734-9.144 10.141z"/>
            <path d="M38.501 67.117c.568.612 1.097.829 1.378.829.514 0 .952-.217 1.344-.662.986-1.125 1.395-3.393 1.062-5.916-.307-2.34-1.064-5.046-2.152-7.997-1.489 2.304-2.887 5.306-3.138 8.682-.148 1.996.416 3.889 1.506 5.064z"/>
            <circle cx="56.887" cy="35.659" r="2.5"/>
            <path d="M19.387 4.16a3.004 3.004 0 0 1-3.001 3.001 3 3 0 1 1 3.001-3.001z"/>
        </g>
    </symbol>

    <symbol id="logo-floe" viewBox="27.5 13 210 95">
        <path d="M68,36h-5.5H57c-12.1,0-22,9.9-22,22v5.5V69v22h22h5.5H68c12.1,0,22-9.9,22-22v-5.5V58V36H68z M79,60.2v3.3
            v3.3C79,74.061,73.061,80,65.8,80h-3.3h-3.3H46v-7.425h0.056c0.257-1.251,1.37-2.2,2.694-2.2l9.299-1.061l6.989-9.029l-16.288,1.29
            c-1.376,0-2.514-1.028-2.709-2.353C46.546,52.414,52.27,47,59.2,47h3.3h3.3H79V60.2z"/>
        <path d="M123,60h-8v31h-11V60h-6v-5.5l6-2.5v-2.883c0-2.508,0.652-4.893,1.262-6.545
            c0.61-1.652,1.477-2.971,2.602-3.955c1.125-0.984,2.484-1.682,4.078-2.092c1.594-0.41,3.387-0.615,5.379-0.615
            c2.156,0,3.973,0.17,5.449,0.51s2.73,0.721,3.762,1.143L124,45.438c-0.727-0.258-1.488-0.492-2.285-0.703
            c-0.797-0.211-1.734-0.316-2.812-0.316c-1.406,0-2.396,0.451-2.971,1.354c-0.575,0.903-0.861,2.057-0.861,3.463L115,52h8V60z"/>
        <path d="M141,91h-11V36h11V91z"/>
        <path d="M207.996,91.246c-2.812,0-5.402-0.41-7.77-1.23c-2.369-0.82-4.406-2.057-6.117-3.709
            c-1.711-1.651-3.041-3.738-3.99-6.258s-1.424-5.479-1.424-8.877c0-3.445,0.434-6.457,1.301-9.035
            c0.867-2.578,2.08-4.729,3.639-6.451s3.434-3.018,5.625-3.885c2.191-0.867,4.623-1.301,7.295-1.301c2.603,0,4.951,0.393,7.049,1.178
            c2.099,0.785,3.879,1.939,5.345,3.463c1.465,1.524,2.59,3.393,3.375,5.607c0.784,2.214,1.178,4.752,1.178,7.611v5.203h-23.978
            c0.047,1.5,0.287,2.854,0.722,4.061c0.434,1.207,1.043,2.227,1.827,3.059c0.785,0.832,1.734,1.471,2.849,1.916
            s2.386,0.668,3.813,0.668c1.195,0,2.326-0.063,3.394-0.192c1.067-0.13,2.104-0.322,3.11-0.58c1.008-0.259,4.98-1.478,6.013-1.992
            v7.969c-0.938,0.492-1.881,0.908-2.83,1.248c-0.949,0.341-1.951,0.628-3.006,0.861c-1.056,0.233-2.19,0.403-3.41,0.51
            C210.786,91.195,209.449,91.246,207.996,91.246z M206.625,58.129c-1.898,0-3.475,0.668-4.729,2.004s-1.976,3.434-2.162,6.293h13.676
            c-0.023-1.195-0.176-2.297-0.457-3.305c-0.281-1.008-0.703-1.881-1.266-2.619c-0.563-0.738-1.267-1.318-2.109-1.74
            C208.734,58.34,207.75,58.129,206.625,58.129z"/>
        <path d="M183.16,70.82c0,3.281-0.416,6.188-1.248,8.719s-2.027,4.664-3.586,6.398
            c-1.559,1.733-3.457,3.053-5.695,3.955c-2.238,0.901-4.752,1.354-7.541,1.354c-2.602,0-4.992-0.451-7.172-1.354
            c-2.18-0.903-4.061-2.222-5.643-3.955c-1.582-1.734-2.818-3.867-3.709-6.398c-0.892-2.531-1.336-5.438-1.336-8.719
            c0-3.258,0.416-6.152,1.248-8.685c0.832-2.532,2.026-4.658,3.586-6.381c1.559-1.723,3.451-3.029,5.678-3.92s4.746-1.336,7.559-1.336
            c2.602,0,4.992,0.445,7.172,1.336s4.062,2.197,5.644,3.92c1.582,1.723,2.817,3.85,3.709,6.381
            C182.716,64.667,183.16,67.562,183.16,70.82z M158.199,70.82c0,3.914,0.551,6.861,1.652,8.842c1.101,1.98,2.895,2.971,5.379,2.971
            c2.461,0,4.242-0.996,5.344-2.988s1.652-4.934,1.652-8.824c0-3.913-0.552-6.838-1.652-8.771c-1.102-1.933-2.906-2.9-5.414-2.9
            c-2.461,0-4.236,0.967-5.326,2.9S158.199,66.906,158.199,70.82z"/>
    </symbol>

    <symbol id="logo-p4a" viewBox="0 0 1857.186 1548.155">
        <g fill="var(--idg-fill)" stroke="var(--idg-stroke)">
            <path d="M1555.234,834.171c-9.084-24.828-31.363-57.967-86.143-75.733c0,0,15.402-82.079-69.268-125.687
                c0,0-76.953-35.938-133.396,20.492c0,0-46.039-73.434-125.713-61.56c-120.594,17.958-120.594,100.063-120.594,100.063
                s-79.52-28.24-143.656,61.56c-64.139,89.806-10.273,156.495,0,164.19c0,0-43.605,66.717,25.66,120.582
                c69.271,53.866,135.977,30.783,135.977,30.783s64.123,41.066,112.887,28.239c0,0,45.111,169.373,6.389,345.593
                c70.193-33.61,127.273-77.508,127.273-77.508l-0.256-4.333c-4.057-67.091-2.486-187.728,46.174-291.991
                c0,0,128.277,15.389,143.666-76.954c0,0,42.273-8.252,68.162-55.452c9.613-17.535,16.984-40.383,19.051-70.261
                C1561.447,866.195,1561.9,852.393,1555.234,834.171 M1185.76,1086.655c8.676-0.951,16.85-9.121,16.85-9.121l10.1,63.01
                L1185.76,1086.655z M1261.285,1128.992c0.49-16.847-11.539-72.137-11.539-72.137c14.42-10.606,18.283-18.304,18.283-18.304
                c8.172,7.697,27.422,17.324,27.422,17.324C1292.553,1063.572,1261.285,1128.992,1261.285,1128.992"/>
        </g>
        <path d="M871.002,761.16c-0.543,0.824-1.029,1.64-1.531,2.46C869.973,762.8,870.459,761.984,871.002,761.16"/>
        <path d="M861.984,776.604c-0.477,0.951-0.963,1.873-1.43,2.83C861.021,778.478,861.508,777.556,861.984,776.604"/>
        <path d="M866.23,768.935c-0.555,0.925-1.07,1.876-1.602,2.805C865.16,770.811,865.676,769.859,866.23,768.935"/>
        <path d="M858.262,784.218c-0.408,0.904-0.816,1.801-1.201,2.674C857.445,786.019,857.854,785.122,858.262,784.218"/>
        <path stroke-width="4" stroke-miterlimit="10" d="M532.557,29.835
            c-279.134,0-505.412,226.277-505.412,505.418c0,98.529,28.309,190.423,77.078,268.164c-0.04-3.014-0.113-6.027-0.113-9.041
            c0-370.135,276.992-675.586,634.984-720.379C676.021,45.702,606.162,29.835,532.557,29.835"/>
        <path stroke-width="4" stroke-miterlimit="10" d="M1159.824,29.835
            c-84.492,0-165.328,15.6-239.846,44.031c358.586,44.263,636.209,349.955,636.209,720.51c0,13.35-0.385,26.63-1.088,39.794
            l-0.062-0.13c6.701,18.3,6.277,32.154,6.277,32.154c-2.07,29.881-9.467,52.756-19.08,70.286
            c-33.834,170.536-127.389,319.522-257.971,424.343c0.08,1.434,0.158,2.988,0.254,4.365
            c312.352-58.498,548.746-332.557,548.746-661.888C1833.264,331.348,1531.754,29.835,1159.824,29.835"/>
        <path d="M1478.256,761.743c1.006,0.368,1.943,0.793,2.912,1.16C1480.199,762.536,1479.262,762.111,1478.256,761.743"
            />
        <path d="M1528.734,793.263l1.533,1.587L1528.734,793.263z"/>
        <path d="M1509.592,777.718c0.805,0.551,1.627,1.082,2.404,1.609C1511.219,778.8,1510.396,778.269,1509.592,777.718"
            />
        <path d="M1494.994,769.173c1.059,0.554,2.076,1.085,3.082,1.639C1497.07,770.258,1496.053,769.727,1494.994,769.173"
            />
        <path d="M1516.598,782.714l1.482,1.111L1516.598,782.714z"/>
        <path d="M1502.52,773.299c0.965,0.558,1.914,1.111,2.838,1.694C1504.434,774.41,1503.484,773.856,1502.52,773.299"/>
        <path d="M1283.672,1349.854c0.061,1.212,0.115,2.429,0.184,3.593
            C1283.787,1352.282,1283.732,1351.065,1283.672,1349.854"/>
        <path d="M1523.645,788.477l1.125,1.03L1523.645,788.477z"/>
        <path d="M1286.938,1234.847c-0.137,1.35-0.268,2.672-0.398,4.05
            C1286.67,1237.542,1286.801,1236.196,1286.938,1234.847"/>
        <path d="M1284.133,1268.718c-0.16,2.727-0.268,5.346-0.4,7.99
            C1283.865,1274.063,1283.973,1271.444,1284.133,1268.718"/>
        <path d="M1541.482,808.308l0.951,1.324L1541.482,808.308z"/>
        <path d="M1545.158,813.834l0.424,0.664L1545.158,813.834z"/>
        <path d="M1537.6,803.128l1.268,1.613L1537.6,803.128z"/>
        <path d="M1553.182,829.335l0.148,0.342L1553.182,829.335z"/>
        <path d="M1533.365,798.132l1.479,1.715L1533.365,798.132z"/>
        <path d="M1540.188,806.538c0.432,0.58,0.871,1.163,1.293,1.77C1541.059,807.701,1540.619,807.118,1540.188,806.538"
            />
        <path d="M1534.844,799.845c0.953,1.089,1.865,2.197,2.754,3.283C1536.709,802.042,1535.797,800.934,1534.844,799.845
            "/>
        <path d="M1542.434,809.631c0.955,1.431,1.865,2.831,2.723,4.203C1544.299,812.462,1543.389,811.062,1542.434,809.631
            "/>
        <path d="M1530.27,794.85c1.057,1.085,2.105,2.195,3.094,3.283C1532.375,797.045,1531.326,795.935,1530.27,794.85"/>
        <path d="M1549.799,822.033c1.258,2.462,2.381,4.894,3.385,7.304C1552.18,826.927,1551.057,824.495,1549.799,822.033"
            />
        <path d="M1490.104,766.796c1.664,0.793,3.305,1.583,4.893,2.375C1493.408,768.379,1491.768,767.589,1490.104,766.796
            "/>
        <path d="M1468.961,758.438c3.209,1.056,6.307,2.167,9.295,3.306C1475.268,760.605,1472.17,759.494,1468.961,758.438"
            />
        <path d="M1498.076,770.812c1.52,0.822,3.002,1.637,4.441,2.486C1501.078,772.448,1499.596,771.634,1498.076,770.812"
            />
        <path d="M1481.166,762.904c1.955,0.792,3.887,1.587,5.76,2.407C1485.053,764.491,1483.121,763.696,1481.166,762.904"
            />
        <path stroke-width="4" stroke-miterlimit="10" d="M104.223,803.417
            c4.86,396.817,327.988,716.995,725.931,716.995c117.668,0,228.771-28.03,327.07-77.717c4.885-22.242,8.426-44.37,10.9-66.062
            c-2.779,0.032-5.529,0.113-8.301,0.113c-249.789,0-467.822-136.006-584.084-338.006c-14.248,1.219-28.631,1.902-43.186,1.902
            C351.967,1040.644,193.602,945.87,104.223,803.417"/>
        <path d="M1524.77,789.508c1.363,1.244,2.699,2.482,3.965,3.757C1527.469,791.99,1526.133,790.752,1524.77,789.508"/>
        <path d="M1511.996,779.325c1.59,1.115,3.123,2.248,4.604,3.389C1515.119,781.573,1513.586,780.44,1511.996,779.325"
            />
        <path d="M1505.359,774.993c1.453,0.898,2.854,1.82,4.232,2.723C1508.213,776.813,1506.812,775.892,1505.359,774.993"
            />
        <path stroke-width="4" stroke-miterlimit="10" d="M830.152,68.336
            c-30.838,0-61.229,1.933-91.059,5.661c29.09,13.062,56.717,28.742,82.572,46.805c31.268-18.168,64.119-33.901,98.312-46.938
            C890.547,70.212,860.576,68.336,830.152,68.336"/>
        <path stroke-width="4" stroke-miterlimit="10" d="M739.094,73.996L739.094,73.996
            C381.1,118.79,104.112,424.241,104.112,794.376c0,3.014,0.072,6.026,0.109,9.041c89.379,142.454,247.746,237.225,428.337,237.225
            c14.549,0,28.936-0.684,43.182-1.901c-56.848-98.767-89.36-213.294-89.36-335.44c0-248.672,134.803-465.83,335.286-582.5
            C795.811,102.74,768.184,87.06,739.094,73.996"/>
        <path d="M869.471,763.618c-1.125,1.775-2.223,3.547-3.24,5.316C867.248,767.165,868.346,765.394,869.471,763.618"/>
        <path d="M869.471,763.618c-1.125,1.775-2.223,3.547-3.24,5.316C867.248,767.165,868.346,765.394,869.471,763.618"/>
        <path d="M864.629,771.738c-0.91,1.64-1.797,3.255-2.645,4.867C862.832,774.993,863.719,773.378,864.629,771.738"/>
        <path stroke-width="4" stroke-miterlimit="10" d="M1172.885,1286.833v-3.091V1286.833
            M1172.105,1253.542c-0.145-3.41-0.305-6.793-0.49-10.125C1171.801,1246.749,1171.961,1250.132,1172.105,1253.542
            M1171.615,1243.417c-0.082-1.456-0.172-2.889-0.264-4.312C1171.443,1240.528,1171.533,1241.961,1171.615,1243.417
            M1170.822,1230.824c-0.105-1.56-0.215-3.117-0.334-4.652C1170.607,1227.707,1170.717,1229.265,1170.822,1230.824
            M1170.488,1226.172c-0.193-2.563-0.393-5.077-0.594-7.563C1170.096,1221.095,1170.295,1223.608,1170.488,1226.172
            M1169.895,1218.608c-0.127-1.561-0.264-3.117-0.408-4.651C1169.631,1215.491,1169.768,1217.048,1169.895,1218.608
            M1169.486,1213.957c-0.215-2.433-0.436-4.841-0.674-7.192C1169.051,1209.116,1169.271,1211.524,1169.486,1213.957
            M1168.812,1206.765c-0.129-1.508-0.281-3.017-0.422-4.496C1168.531,1203.748,1168.684,1205.257,1168.812,1206.765
            M1168.391,1202.269c-0.256-2.433-0.502-4.812-0.768-7.192C1167.889,1197.457,1168.135,1199.836,1168.391,1202.269
            M1167.623,1195.076c-0.146-1.296-0.293-2.619-0.439-3.915C1167.33,1192.457,1167.477,1193.78,1167.623,1195.076 M1167.184,1191.161
            c-0.328-2.961-0.674-5.844-1.029-8.672C1166.51,1185.317,1166.855,1188.2,1167.184,1191.161 M1166.154,1182.489l-0.238-1.905
            L1166.154,1182.489 M1165.916,1180.584c-0.424-3.414-0.873-6.69-1.309-9.919C1165.043,1173.894,1165.492,1177.17,1165.916,1180.584
            M1164.607,1170.665c-0.174-1.238-0.342-2.375-0.516-3.596C1164.266,1168.261,1164.434,1169.427,1164.607,1170.665
            M1164.092,1167.069c-0.279-2.008-0.566-4.02-0.859-5.973C1163.525,1163.05,1163.812,1165.062,1164.092,1167.069 M1162.623,1157.231
            c-0.252-1.715-0.516-3.434-0.791-5.1C1162.107,1153.798,1162.371,1155.517,1162.623,1157.231 M1160.455,1143.722
            c-0.213-1.215-0.422-2.433-0.633-3.625C1160.033,1141.289,1160.242,1142.507,1160.455,1143.722 M1158.463,1132.588
            c-0.252-1.375-0.508-2.668-0.758-3.964C1157.955,1129.92,1158.211,1131.213,1158.463,1132.588 M1156.268,1121.242
            c-0.178-0.873-0.357-1.743-0.52-2.587C1155.91,1119.499,1156.09,1120.369,1156.268,1121.242 M1155.748,1118.655
            c-0.316-1.537-0.637-3.016-0.926-4.393C1155.111,1115.64,1155.432,1117.118,1155.748,1118.655 M1154.822,1114.263
            c-0.156-0.767-0.318-1.428-0.461-2.142C1154.504,1112.835,1154.666,1113.496,1154.822,1114.263 M1154.361,1112.121
            c-0.201-0.901-0.412-1.823-0.598-2.671C1153.949,1110.298,1154.16,1111.22,1154.361,1112.121 M1153.764,1109.45l-0.422-1.876
            L1153.764,1109.45 M1152.842,1105.382l-0.346-1.537L1152.842,1105.382 M1152.496,1103.845l-0.426-1.77L1152.496,1103.845
            M1152.07,1102.075l-0.287-1.191L1152.07,1102.075 M1151.783,1100.884l-0.318-1.32L1151.783,1100.884 M1151.465,1099.563
            l-0.209-0.797L1151.465,1099.563 M1151.256,1098.767l-0.215-0.848L1151.256,1098.767 M1151.041,1097.919l-0.105-0.447
            L1151.041,1097.919 M1150.936,1097.472l-0.104-0.371L1150.936,1097.472 M870.195,911.255L870.195,911.255
            c-79.469,71.4-181.688,117.94-294.457,127.485c116.264,202,334.293,338.006,584.084,338.006c2.773,0,5.525-0.078,8.303-0.11
            c1.176-10.256,2.111-20.44,2.828-30.49c0.07-0.977,0.119-1.98,0.189-2.957c0.26-3.998,0.51-7.963,0.711-11.926
            c0.078-1.297,0.129-2.619,0.184-3.916c0.176-3.623,0.32-7.244,0.441-10.815c0.035-1.399,0.09-2.804,0.113-4.202
            c0.107-3.55,0.174-7.039,0.227-10.531c0-0.127,0-0.287,0.014-0.42v-0.234v-0.16c0-1.059,0.023-2.088,0.039-3.12
            c0.014-2.332,0.025-4.63,0.025-6.902c0-1.378,0-2.75-0.012-4.128c0.012,1.378,0.012,2.75,0.012,4.128c0-1.378,0-2.75-0.012-4.128
            v-3.091c-0.029-5.103-0.119-10.154-0.238-15.125c0.119,4.971,0.209,10.022,0.238,15.125c-0.053-5.103-0.137-10.154-0.238-15.125
            c-0.119-4.127-0.266-8.226-0.422-12.271c-0.027-0.951-0.082-1.879-0.119-2.805c-0.145-3.41-0.305-6.793-0.49-10.125
            c-0.082-1.456-0.172-2.889-0.264-4.312c-0.16-2.778-0.346-5.551-0.529-8.28c-0.105-1.56-0.215-3.117-0.334-4.652
            c-0.193-2.563-0.393-5.077-0.594-7.563c-0.127-1.561-0.264-3.117-0.408-4.651c-0.215-2.433-0.436-4.841-0.674-7.192
            c-0.129-1.508-0.281-3.017-0.422-4.496c-0.256-2.433-0.502-4.812-0.768-7.192c-0.146-1.296-0.293-2.619-0.439-3.915
            c-0.328-2.961-0.674-5.844-1.029-8.672l-0.238-1.905c-0.424-3.414-0.873-6.69-1.309-9.919c-0.174-1.238-0.342-2.404-0.516-3.596
            c-0.279-2.008-0.566-4.02-0.859-5.973c-0.199-1.295-0.396-2.569-0.609-3.865c-0.252-1.715-0.516-3.434-0.791-5.1
            c-0.215-1.299-0.424-2.595-0.635-3.861c-0.238-1.537-0.504-3.066-0.742-4.549c-0.213-1.215-0.422-2.433-0.633-3.625
            c-0.256-1.427-0.508-2.828-0.766-4.205c-0.08-0.549-0.189-1.137-0.289-1.662c-0.109-0.557-0.215-1.11-0.305-1.642
            c0.09,0.531,0.195,1.085,0.305,1.642c-0.109-0.557-0.215-1.11-0.305-1.642c-0.252-1.375-0.508-2.668-0.758-3.964
            c-0.174-0.98-0.367-1.984-0.555-2.912c-0.145-0.763-0.293-1.531-0.434-2.277c-0.148-0.736-0.305-1.449-0.449-2.192
            c0.145,0.714,0.301,1.456,0.449,2.192c-0.148-0.736-0.305-1.479-0.449-2.192c-0.178-0.873-0.357-1.743-0.52-2.587
            c-0.316-1.537-0.637-3.016-0.926-4.393c-0.156-0.767-0.318-1.428-0.461-2.142c-0.201-0.901-0.412-1.823-0.598-2.671l-0.422-1.876
            c-0.076-0.345-0.16-0.688-0.238-1.033c-0.08-0.397-0.172-0.789-0.262-1.159c0.09,0.37,0.182,0.762,0.262,1.159
            c-0.08-0.397-0.172-0.789-0.262-1.159l-0.346-1.537l-0.426-1.77l-0.287-1.191l-0.318-1.32l-0.209-0.797l-0.215-0.848l-0.105-0.447
            l-0.104-0.371c-6.588,1.718-13.463,2.463-20.402,2.463c-44.492,0-92.475-30.702-92.475-30.702s-14.215,4.916-36.322,4.916
            c-25.777,0-62.34-6.69-99.637-35.698c-30.65-23.822-39.205-50.162-39.217-72.137c0-27.689,13.549-48.446,13.549-48.446
            C874.943,916.466,872.773,914.349,870.195,911.255"/>
        <path stroke-width="4" stroke-miterlimit="10" d="M919.977,73.864L919.977,73.864
            c-34.193,13.037-67.041,28.771-98.309,46.938c130.701,91.362,216.287,242.884,216.287,414.45c0,53.998-8.564,106.014-24.248,154.801
            l-0.279-0.053c4.18,0.897,6.557,1.744,6.557,1.744v-0.023c0-0.792,0.596-82.163,120.59-100.037
            c5.945-0.873,11.711-1.299,17.287-1.299c69.02,0,108.424,62.859,108.424,62.859c24.83-24.832,53.639-31.787,78.113-31.787
            c31.15,0,55.293,11.291,55.293,11.291c62.092,31.975,70.365,84.648,70.365,110.483c0,9.386-1.096,15.206-1.096,15.206
            c3.209,1.055,6.307,2.166,9.295,3.307c1.006,0.368,1.943,0.791,2.91,1.159c1.955,0.792,3.887,1.586,5.76,2.407
            c1.086,0.502,2.133,1.007,3.176,1.484c1.666,0.793,3.307,1.584,4.895,2.377c1.057,0.556,2.072,1.084,3.08,1.641
            c1.521,0.82,3,1.637,4.441,2.486c0.967,0.556,1.914,1.109,2.842,1.693c1.453,0.898,2.855,1.821,4.232,2.723
            c0.807,0.555,1.625,1.086,2.404,1.609c1.59,1.114,3.123,2.252,4.604,3.389l1.482,1.109c1.93,1.532,3.793,3.069,5.564,4.652
            l1.121,1.033c1.365,1.244,2.701,2.481,3.965,3.756l1.537,1.586c1.057,1.085,2.104,2.195,3.096,3.283l1.479,1.711
            c0.955,1.088,1.863,2.195,2.756,3.283l1.268,1.612c0.445,0.609,0.893,1.189,1.322,1.798c0.432,0.58,0.867,1.164,1.293,1.77
            l0.951,1.322c0.955,1.433,1.865,2.83,2.725,4.205l0.424,0.664c1.562,2.539,2.961,5.051,4.215,7.535
            c1.26,2.459,2.381,4.891,3.385,7.301l0.148,0.342c0.609,1.482,1.174,2.935,1.705,4.361l0.064,0.131
            c0.701-13.164,1.086-26.444,1.086-39.791C1556.186,423.819,1278.566,118.13,919.977,73.864"/>
        <path d="M1486.928,765.312c1.086,0.502,2.117,1.007,3.176,1.486C1489.057,766.318,1488.014,765.813,1486.928,765.312
            "/>
        <path d="M1538.865,804.739c0.447,0.609,0.896,1.189,1.322,1.799C1539.762,805.929,1539.312,805.349,1538.865,804.739
            "/>
        <path d="M1553.33,829.678c0.609,1.482,1.174,2.935,1.705,4.362C1554.504,832.612,1553.939,831.16,1553.33,829.678"/>
        <path d="M1545.58,814.499c1.564,2.539,2.961,5.05,4.217,7.535C1548.541,819.549,1547.145,817.038,1545.58,814.499"/>
        <path d="M1518.08,783.823c1.932,1.531,3.795,3.069,5.564,4.652C1521.875,786.893,1520.012,785.354,1518.08,783.823"
            />
        <path stroke-width="4" stroke-miterlimit="10" d="M863.996,902.821l-0.691-1.087L863.996,902.821
            M863.996,902.821l-0.691-1.087L863.996,902.821 M863.305,901.734l-1.029-1.665L863.305,901.734 M862.275,900.069l-0.939-1.562
            L862.275,900.069 M862.275,900.069l-0.939-1.562L862.275,900.069 M861.336,898.507l-0.918-1.588L861.336,898.507 M860.418,896.919
            l-1.076-1.951L860.418,896.919 M860.418,896.919l-1.076-1.951L860.418,896.919 M859.342,894.968l-0.807-1.512L859.342,894.968
            M857.34,891.079l-0.666-1.375L857.34,891.079 M856.674,889.704c-0.5-1.029-0.99-2.094-1.465-3.195
            C855.684,887.61,856.174,888.675,856.674,889.704 M856.674,889.704c-0.5-1.029-0.99-2.094-1.465-3.195
            C855.684,887.61,856.174,888.675,856.674,889.704 M855.209,886.509l-0.35-0.799L855.209,886.509 M854.859,885.71
            c-1.227-2.801-2.365-5.817-3.43-8.965C852.494,879.893,853.633,882.909,854.859,885.71 M854.859,885.71
            c-1.227-2.801-2.365-5.817-3.43-8.965C852.494,879.893,853.633,882.909,854.859,885.71 M851.43,876.745l-0.291-0.928L851.43,876.745
            M851.139,875.817c-0.422-1.265-0.82-2.535-1.201-3.857C850.318,873.282,850.717,874.553,851.139,875.817 M851.139,875.817
            c-0.422-1.265-0.82-2.535-1.201-3.857C850.318,873.282,850.717,874.553,851.139,875.817 M849.938,871.96l-0.338-1.244
            L849.938,871.96 M849.6,870.716c-0.352-1.241-0.682-2.537-0.986-3.834C848.918,868.179,849.248,869.475,849.6,870.716
            M849.6,870.716c-0.352-1.241-0.682-2.537-0.986-3.834C848.918,868.179,849.248,869.475,849.6,870.716 M848.613,866.882
            l-0.322-1.346L848.613,866.882 M848.291,865.536c-0.307-1.328-0.582-2.674-0.834-4.049
            C847.709,862.862,847.984,864.208,848.291,865.536 M848.291,865.536c-0.307-1.328-0.582-2.674-0.834-4.049
            C847.709,862.862,847.984,864.208,848.291,865.536 M847.457,861.487l-0.254-1.267L847.457,861.487 M847.203,860.221
            c-0.27-1.534-0.51-3.095-0.725-4.658C846.693,857.126,846.934,858.687,847.203,860.221 M847.203,860.221
            c-0.27-1.534-0.51-3.095-0.725-4.658C846.693,857.126,846.934,858.687,847.203,860.221 M846.479,855.562l-0.123-0.841
            L846.479,855.562 M846.355,854.722c-0.494-3.838-0.812-7.805-0.918-11.905C845.543,846.917,845.861,850.884,846.355,854.722
            M846.355,854.722c-0.494-3.838-0.812-7.805-0.918-11.905C845.543,846.917,845.861,850.884,846.355,854.722 M845.438,842.816v-0.633
            V842.816 M821.668,120.8L821.668,120.8C621.184,237.471,486.381,454.628,486.381,703.3c0,122.146,32.511,236.674,89.359,335.441
            c112.77-9.545,214.986-56.086,294.453-127.486c-0.553-0.687-1.137-1.403-1.725-2.168c-1.418-1.825-2.924-3.942-4.473-6.266
            l-0.691-1.087l-1.029-1.665l-0.939-1.562l-0.918-1.588l-1.076-1.951l-0.807-1.512c-0.412-0.791-0.801-1.557-1.195-2.377
            l-0.666-1.375c-0.5-1.029-0.99-2.094-1.465-3.195l-0.35-0.799c-1.227-2.801-2.365-5.817-3.43-8.965l-0.291-0.928
            c-0.422-1.265-0.82-2.535-1.201-3.857l-0.338-1.244c-0.352-1.241-0.682-2.537-0.986-3.834l-0.322-1.346
            c-0.307-1.328-0.582-2.674-0.834-4.049l-0.254-1.267c-0.27-1.534-0.51-3.095-0.725-4.658l-0.123-0.841
            c-0.494-3.838-0.812-7.805-0.918-11.905v-0.633c-0.014-0.765-0.02-1.56-0.02-2.354c0,0.795,0.006,1.59,0.02,2.354
            c-0.014-0.765-0.02-1.56-0.02-2.354c0,0.795,0.006,1.59,0.02,2.354c-0.014-0.765-0.02-1.56-0.02-2.354
            c0-1.004,0.014-2.033,0.035-3.068l0.061-1.559c0.062-1.562,0.146-3.119,0.271-4.732l0.178-1.85c0.135-1.537,0.314-3.095,0.527-4.685
            l0.27-1.952c0.244-1.615,0.531-3.257,0.838-4.924l0.348-1.793c0.395-1.963,0.855-3.941,1.367-5.951l0.217-0.902
            c0.615-2.354,1.301-4.756,2.068-7.166l0.258-0.738c0.686-2.112,1.43-4.232,2.238-6.348c0.277-0.736,0.58-1.481,0.879-2.221
            c0.658-1.693,1.338-3.357,2.088-5.049c0.383-0.873,0.795-1.77,1.201-2.674c0.723-1.584,1.488-3.17,2.291-4.783
            c0.467-0.954,0.955-1.879,1.43-2.83c0.848-1.613,1.734-3.225,2.646-4.867c0.531-0.925,1.047-1.876,1.6-2.802
            c1.021-1.772,2.117-3.541,3.24-5.315c0.502-0.82,0.992-1.636,1.535-2.459c1.666-2.594,3.438-5.213,5.326-7.854
            c1.865-2.593,3.744-5.101,5.621-7.509c0.58-0.739,1.174-1.426,1.746-2.141c1.322-1.664,2.658-3.283,3.992-4.843
            c0.66-0.767,1.336-1.532,2.008-2.3c1.297-1.456,2.596-2.881,3.891-4.256l1.928-2.012c1.426-1.482,2.857-2.879,4.311-4.283
            l1.469-1.401c3.928-3.675,7.867-7.004,11.781-10.022l1.297-0.951c1.527-1.137,3.062-2.245,4.6-3.307l1.613-1.085
            c1.453-0.978,2.922-1.929,4.391-2.827l1.479-0.899c1.639-0.979,3.254-1.933,4.893-2.804l0.844-0.474
            c1.062-0.56,2.092-1.088,3.15-1.616c2.668-1.348,5.328-2.537,7.957-3.65c0.082-0.023,0.146-0.049,0.227-0.076
            c0.119-0.055,0.225-0.109,0.344-0.159l0.779-0.319c1.627-0.631,3.23-1.24,4.826-1.824l1.176-0.395
            c1.51-0.527,2.988-1.006,4.475-1.456l1.08-0.319c1.639-0.473,3.264-0.922,4.875-1.321l0.416-0.104
            c1.824-0.447,3.607-0.818,5.365-1.164c1.76-0.342,3.494-0.66,5.209-0.898l0.582-0.107c1.455-0.183,2.883-0.367,4.283-0.527
            l0.98-0.104c1.279-0.134,2.551-0.237,3.809-0.319l0.951-0.08c1.32-0.08,2.646-0.129,3.939-0.154l0.488-0.029
            c0.465,0,0.941-0.025,1.404-0.025h1.344h0.039h0.057c1.771,0,3.451,0.025,5.074,0.104c0.135,0,0.268,0,0.387,0.025l0.951,0.056
            c0.928,0.056,1.84,0.104,2.711,0.187l1.217,0.078c0.768,0.08,1.504,0.159,2.232,0.237l1.203,0.131l1.957,0.267l1.166,0.156
            l1.863,0.29c0.816,0.134,1.6,0.294,2.34,0.423l0.766,0.164l1.613,0.342l0.281,0.055c15.68-48.79,24.246-100.805,24.246-154.805
            C1037.955,363.686,952.369,212.163,821.668,120.8"/>
        <path d="M860.555,779.434c-0.805,1.615-1.57,3.202-2.291,4.783C858.99,782.636,859.75,781.049,860.555,779.434"/>
        <path d="M1283.406,1343.024c0.092,2.307,0.174,4.604,0.266,6.828
            C1283.58,1347.628,1283.498,1345.331,1283.406,1343.024"/>
        <path d="M1284.055,1357.172c0.078,1.218,0.129,2.515,0.186,3.685l0.023-0.033
            C1284.201,1359.606,1284.133,1358.39,1284.055,1357.172"/>
        <path d="M1282.865,1316.586v3.701V1316.586z"/>
        <path d="M1283.1,1294.634c-0.074,3.146-0.156,6.268-0.209,9.336C1282.943,1300.93,1283.025,1297.78,1283.1,1294.634"
            />
        <path d="M1282.994,1327.954c0.041,2.591,0.078,5.158,0.162,7.643
            C1283.072,1333.112,1283.035,1330.545,1282.994,1327.954"/>
        <path d="M1285.93,1245.004c-0.158,1.665-0.314,3.355-0.451,5.021
            C1285.615,1248.359,1285.771,1246.695,1285.93,1245.004"/>
        <path d="M1476.459,991.325c-0.809,0.213-1.418,0.374-1.826,0.447
            C1475.029,991.699,1475.639,991.538,1476.459,991.325"/>
        <path d="M1542.25,936.456c-21.023,38.344-52.863,50.983-64.074,54.371c11.188-3.359,43.01-15.972,64.059-54.345
            L1542.25,936.456"/>
        <path d="M1291.803,1198.991c-0.664,4.018-1.336,8.037-1.906,12.024
            C1290.467,1207.052,1291.139,1203.009,1291.803,1198.991"/>
        <path d="M1311.793,1116.301c-1.453,4.411-2.936,8.8-4.258,13.243
            C1308.857,1125.101,1310.34,1120.712,1311.793,1116.301"/>
        <path d="M1295.49,1178.627c-0.818,4.099-1.65,8.226-2.377,12.294
            C1293.84,1186.853,1294.672,1182.726,1295.49,1178.627"/>
        <path stroke-width="4" stroke-miterlimit="10" d="M1282.863,1311.743c0-2.562,0-5.133,0.027-7.774
            C1282.863,1306.61,1282.863,1309.181,1282.863,1311.743 M1283.098,1294.633c0.059-2.613,0.111-5.212,0.201-7.88
            C1283.209,1289.421,1283.156,1292.02,1283.098,1294.633 M1283.299,1286.753c0.117-3.301,0.277-6.656,0.436-10.043
            C1283.576,1280.097,1283.416,1283.452,1283.299,1286.753 M1284.135,1268.72c0.209-3.489,0.475-7.059,0.738-10.604
            C1284.609,1261.687,1284.344,1265.23,1284.135,1268.72 M1284.873,1258.116c0.197-2.697,0.371-5.369,0.607-8.092
            C1285.244,1252.747,1285.07,1255.419,1284.873,1258.116 M1287.373,1230.747c0.436-3.832,0.951-7.721,1.453-11.607
            C1288.324,1223.026,1287.809,1226.915,1287.373,1230.747 M1288.826,1219.14c0.357-2.697,0.672-5.391,1.07-8.123
            C1289.498,1213.749,1289.184,1216.442,1288.826,1219.14 M1291.803,1198.993c0.422-2.701,0.832-5.344,1.311-8.072
            C1292.635,1193.649,1292.225,1196.292,1291.803,1198.993 M1295.49,1178.626c0.529-2.693,1.016-5.367,1.598-8.064
            C1296.506,1173.259,1296.02,1175.933,1295.49,1178.626 M1297.088,1170.562c0.887-4.18,1.922-8.404,2.912-12.587
            C1299.01,1162.157,1297.975,1166.382,1297.088,1170.562 M1300,1157.975c0.633-2.642,1.189-5.262,1.859-7.877
            C1301.189,1152.713,1300.633,1155.333,1300,1157.975 M1301.859,1150.098c1.102-4.284,2.318-8.567,3.533-12.851
            C1304.178,1141.53,1302.961,1145.813,1301.859,1150.098 M1305.393,1137.247c0.713-2.57,1.377-5.135,2.143-7.703
            C1306.77,1132.112,1306.105,1134.677,1305.393,1137.247 M1311.793,1116.301c0.791-2.41,1.504-4.813,2.342-7.195
            C1313.297,1111.487,1312.584,1113.891,1311.793,1116.301 M1314.135,1109.105c1.682-4.811,3.543-9.6,5.391-14.356
            C1317.678,1099.506,1315.816,1104.295,1314.135,1109.105 M1319.525,1094.749c0.756-1.961,1.432-3.971,2.225-5.898
            C1320.957,1090.809,1320.281,1092.788,1319.525,1094.749 M1321.75,1088.851c2.707-6.717,5.592-13.379,8.674-19.988
            C1327.342,1075.472,1324.457,1082.134,1321.75,1088.851 M1474.078,991.907l0.383-0.08L1474.078,991.907 M1474.461,991.827
            l0.172-0.056L1474.461,991.827 M1478.135,990.825h0.041H1478.135 M1542.236,936.481c-21.051,38.373-52.871,50.986-64.061,54.344
            h-0.041c-0.617,0.213-1.189,0.369-1.676,0.5c0.486-0.131,1.059-0.287,1.676-0.5c-0.617,0.213-1.189,0.369-1.676,0.5
            c-0.82,0.211-1.43,0.373-1.826,0.446l-0.172,0.056l-0.383,0.08c-11.531,69.256-86.58,77.933-123.375,77.933
            c-12.27,0-20.279-0.978-20.279-0.978c-3.082,6.609-5.967,13.271-8.674,19.988c-0.793,1.928-1.469,3.938-2.225,5.898
            c-1.848,4.757-3.709,9.546-5.391,14.356c-0.838,2.382-1.551,4.785-2.342,7.195c-1.453,4.411-2.936,8.8-4.258,13.243
            c-0.766,2.568-1.43,5.133-2.143,7.703c-1.215,4.283-2.432,8.566-3.533,12.851c-0.67,2.615-1.227,5.235-1.859,7.877
            c-0.99,4.183-2.025,8.407-2.912,12.587c-0.582,2.697-1.068,5.371-1.598,8.064c-0.818,4.099-1.648,8.226-2.377,12.295
            c-0.479,2.729-0.889,5.371-1.311,8.072c-0.662,4.013-1.338,8.059-1.906,12.023c-0.398,2.732-0.713,5.426-1.07,8.123
            c-0.502,3.887-1.018,7.775-1.453,11.607c-0.145,1.375-0.293,2.726-0.436,4.101c0.143-1.375,0.291-2.726,0.436-4.101
            c-0.145,1.375-0.293,2.75-0.436,4.101c-0.135,1.349-0.266,2.694-0.396,4.046c-0.197,2.036-0.416,4.068-0.611,6.11
            c0.195-2.042,0.414-4.074,0.611-6.11c-0.197,2.036-0.416,4.068-0.611,6.11c-0.158,1.69-0.314,3.356-0.449,5.021
            c-0.236,2.723-0.41,5.395-0.607,8.092c-0.264,3.545-0.529,7.114-0.738,10.604c-0.16,2.727-0.268,5.342-0.4,7.99
            c-0.158,3.387-0.318,6.742-0.436,10.043c-0.09,2.668-0.143,5.267-0.201,7.88c-0.074,3.147-0.152,6.296-0.207,9.336
            c-0.027,2.642-0.027,5.212-0.027,7.774v4.844v-4.844v4.844v3.701c0.027,2.613,0.082,5.131,0.131,7.666
            c0.041,2.59,0.08,5.158,0.162,7.642c0.061,2.537,0.156,4.972,0.25,7.431c0.092,2.305,0.17,4.603,0.268,6.826
            c0.061,1.212,0.115,2.428,0.182,3.596c0.066,1.188,0.119,2.353,0.186,3.516c0.014,0.082,0.014,0.134,0.014,0.209
            c0.08,1.219,0.146,2.434,0.209,3.648C1414.844,1256.005,1508.402,1107.018,1542.236,936.481"/>
        <path d="M1283.156,1335.597c0.061,2.537,0.156,5.003,0.25,7.43
            C1283.312,1340.567,1283.217,1338.134,1283.156,1335.597"/>
        <path d="M1282.865,1320.288c0.025,2.613,0.076,5.154,0.129,7.668
            C1282.941,1325.422,1282.891,1322.901,1282.865,1320.288"/>
        <path d="M1283.855,1353.448c0.064,1.186,0.119,2.355,0.184,3.518
            C1283.975,1355.804,1283.92,1354.634,1283.855,1353.448"/>
        <path d="M1289.896,1211.017c-0.396,2.729-0.713,5.428-1.07,8.124
            C1289.184,1216.444,1289.5,1213.745,1289.896,1211.017"/>
        <path d="M1293.111,1190.922c-0.479,2.728-0.889,5.372-1.309,8.069
            C1292.223,1196.294,1292.633,1193.649,1293.111,1190.922"/>
        <path d="M1286.938,1234.847L1286.938,1234.847c-0.135,1.35-0.266,2.695-0.396,4.05
            C1286.672,1237.542,1286.803,1236.196,1286.938,1234.847 M1287.373,1230.746c-0.145,1.375-0.293,2.726-0.436,4.101
            C1287.08,1233.496,1287.229,1232.121,1287.373,1230.746"/>
        <path d="M1297.088,1170.562c-0.58,2.697-1.066,5.373-1.598,8.064
            C1296.021,1175.935,1296.508,1173.259,1297.088,1170.562"/>
        <path d="M1282.891,1303.968c-0.027,2.643-0.027,5.213-0.027,7.775
            C1282.863,1309.181,1282.863,1306.61,1282.891,1303.968"/>
        <path d="M1283.297,1286.754c-0.09,2.669-0.141,5.265-0.195,7.88
            C1283.156,1292.019,1283.207,1289.423,1283.297,1286.754"/>
        <path d="M1301.859,1150.099c-0.67,2.613-1.227,5.234-1.861,7.877
            C1300.633,1155.333,1301.189,1152.712,1301.859,1150.099"/>
        <path d="M1285.479,1250.025c-0.234,2.72-0.408,5.392-0.605,8.093
            C1285.07,1255.417,1285.244,1252.745,1285.479,1250.025"/>
        <path d="M1478.176,990.827h-0.041H1478.176z"/>
        <path d="M1314.133,1109.106c-0.836,2.379-1.547,4.783-2.34,7.193
            C1312.586,1113.89,1313.297,1111.485,1314.133,1109.106"/>
        <path d="M1307.537,1129.544c-0.77,2.57-1.432,5.134-2.145,7.701
            C1306.105,1134.678,1306.768,1132.114,1307.537,1129.544"/>
        <path d="M1321.748,1088.851c-0.789,1.93-1.467,3.936-2.225,5.899
            C1320.281,1092.786,1320.959,1090.809,1321.748,1088.851"/>
        <path d="M1474.633,991.772l-0.174,0.055L1474.633,991.772z"/>
        <path d="M1284.873,1258.117c-0.264,3.544-0.531,7.111-0.74,10.601
            C1284.342,1265.229,1284.609,1261.685,1284.873,1258.117"/>
        <path d="M1284.039,1356.966c0.016,0.078,0.016,0.133,0.016,0.205
            C1284.055,1357.099,1284.055,1357.044,1284.039,1356.966"/>
        <path d="M1282.865,1311.743v4.844V1311.743z"/>
        <path d="M1283.734,1276.708c-0.158,3.389-0.316,6.743-0.436,10.047
            C1283.418,1283.451,1283.576,1280.097,1283.734,1276.708"/>
        <path d="M1288.826,1219.14c-0.502,3.887-1.018,7.775-1.453,11.607
            C1287.809,1226.915,1288.324,1223.026,1288.826,1219.14"/>
        <path d="M1319.525,1094.75c-1.848,4.757-3.711,9.546-5.393,14.356
            C1315.814,1104.296,1317.678,1099.507,1319.525,1094.75"/>
        <path d="M1285.928,1245.003L1285.928,1245.003c-0.156,1.691-0.312,3.357-0.449,5.023
            C1285.615,1248.36,1285.771,1246.694,1285.928,1245.003 M1286.541,1238.895c-0.197,2.033-0.416,4.066-0.613,6.108
            C1286.125,1242.961,1286.344,1240.928,1286.541,1238.895"/>
        <path d="M1474.461,991.827l-0.385,0.08L1474.461,991.827z"/>
        <path d="M1476.461,991.325L1476.461,991.325c-0.822,0.212-1.43,0.375-1.828,0.447
            C1475.031,991.7,1475.639,991.537,1476.461,991.325 M1478.137,990.827c-0.621,0.209-1.189,0.367-1.676,0.498
            C1476.947,991.194,1477.516,991.036,1478.137,990.827"/>
        <path d="M1330.424,1068.86c-3.084,6.611-5.967,13.271-8.676,19.992
            C1324.457,1082.132,1327.34,1075.472,1330.424,1068.86"/>
        <path d="M1305.393,1137.245c-1.215,4.287-2.43,8.567-3.533,12.854
            C1302.963,1145.812,1304.178,1141.532,1305.393,1137.245"/>
        <path d="M1300,1157.975c-0.992,4.179-2.025,8.405-2.912,12.587C1297.975,1166.38,1299.008,1162.153,1300,1157.975"/>
        <path stroke-width="4" stroke-miterlimit="10" d="M1202.475,1077.533c0,0-8.186,8.171-16.846,9.124
            l26.943,53.889L1202.475,1077.533"/>
        <path stroke-width="4" stroke-miterlimit="10" d="M1267.893,1038.553
            c0,0-3.855,7.694-18.285,18.304c0,0,11.561,53.152,11.561,71.102c0,0.371-0.012,0.717-0.012,1.035c0,0,31.268-65.419,34.146-73.117
            C1295.303,1055.876,1276.068,1046.247,1267.893,1038.553"/>
        <g fill="var(--idg-fill)" stroke="var(--idg-stroke)">
            <path d="M397.793,438.218c0,6.264-1.096,12.387-3.288,18.367c-2.193,5.982-5.324,11.008-9.395,15.08
                c-5.576,5.513-11.791,9.677-18.649,12.495s-15.394,4.229-25.602,4.229h-22.454v45.566h-36.078V394.061h59.377
                c8.893,0,16.395,0.768,22.501,2.302c6.107,1.536,11.509,3.837,16.207,6.905c5.637,3.696,9.943,8.425,12.918,14.187
                C396.305,423.218,397.793,430.138,397.793,438.218z M360.495,439.021c0-3.937-1.066-7.327-3.194-10.17
                c-2.13-2.844-4.604-4.829-7.422-5.953c-3.758-1.5-7.422-2.328-10.992-2.484c-3.57-0.155-8.331-0.235-14.281-0.235h-6.201v41.809
                h10.334c6.138,0,11.195-0.375,15.173-1.125c3.977-0.75,7.312-2.25,10.006-4.5c2.316-1.999,3.993-4.391,5.026-7.171
                C359.978,446.413,360.495,443.021,360.495,439.021z"/>
            <path d="M497.945,460.672h-2.999c-1.439-0.5-3.751-0.876-6.938-1.127c-3.188-0.25-5.844-0.375-7.968-0.375
                c-4.812,0-9.062,0.314-12.75,0.939c-3.688,0.627-7.657,1.691-11.905,3.194v70.652h-33.917V428.447h33.917v15.502
                c7.437-6.389,13.905-10.631,19.404-12.73c5.499-2.098,10.562-3.147,15.188-3.147c1.186,0,2.531,0.032,4.031,0.094
                c1.5,0.063,2.812,0.157,3.937,0.282V460.672z"/>
            <path d="M624.969,481.248c0,17.35-5.06,31.02-15.174,41.01c-10.115,9.991-24.318,14.984-42.607,14.984
                s-32.492-4.993-42.606-14.984c-10.116-9.99-15.173-23.66-15.173-41.01c0-17.475,5.088-31.192,15.267-41.151
                c10.178-9.959,24.349-14.938,42.513-14.938c18.415,0,32.648,5.012,42.701,15.032C619.941,450.213,624.969,463.899,624.969,481.248z
                M583.348,506.896c2.191-2.692,3.836-5.934,4.933-9.725c1.095-3.788,1.644-9.033,1.644-15.736c0-6.201-0.563-11.398-1.691-15.596
                c-1.127-4.195-2.693-7.547-4.697-10.053c-2.005-2.567-4.416-4.383-7.234-5.449c-2.818-1.064-5.857-1.597-9.113-1.597
                c-3.257,0-6.153,0.439-8.689,1.315c-2.537,0.877-4.965,2.63-7.281,5.261c-2.067,2.442-3.711,5.794-4.934,10.053
                c-1.221,4.261-1.832,9.615-1.832,16.065c0,5.764,0.531,10.758,1.598,14.985c1.064,4.228,2.631,7.626,4.697,10.194
                c2.004,2.442,4.4,4.228,7.188,5.354c2.787,1.128,5.967,1.691,9.536,1.691c3.068,0,5.997-0.517,8.784-1.55
                S581.405,509.34,583.348,506.896z"/>
            <path d="M740.904,500.508c0,10.898-4.886,19.684-14.656,26.354c-9.771,6.67-23.145,10.006-40.117,10.006
                c-9.396,0-17.914-0.878-25.555-2.631c-7.643-1.752-13.78-3.695-18.415-5.824v-27.811h3.101c1.691,1.191,3.648,2.49,5.872,3.899
                c2.222,1.409,5.37,2.929,9.442,4.557c3.506,1.441,7.483,2.677,11.932,3.711c4.446,1.034,9.207,1.55,14.28,1.55
                c6.638,0,11.556-0.734,14.751-2.207c3.193-1.471,4.791-3.648,4.791-6.53c0-2.567-0.939-4.431-2.818-5.59
                c-1.879-1.158-5.449-2.27-10.711-3.335c-2.506-0.564-5.904-1.175-10.193-1.832c-4.291-0.658-8.189-1.457-11.697-2.396
                c-9.583-2.504-16.692-6.402-21.326-11.697c-4.637-5.291-6.953-11.885-6.953-19.776c0-10.146,4.807-18.586,14.422-25.32
                c9.613-6.732,22.75-10.1,39.412-10.1c7.893,0,15.455,0.798,22.689,2.396c7.234,1.598,12.887,3.305,16.959,5.121v26.682H733.2
                c-5.012-3.444-10.727-6.248-17.146-8.409c-6.422-2.161-12.919-3.241-19.496-3.241c-5.449,0-10.037,0.751-13.764,2.255
                c-3.727,1.503-5.59,3.633-5.59,6.389c0,2.506,0.846,4.416,2.537,5.731s5.668,2.631,11.932,3.946
                c3.443,0.69,7.154,1.362,11.133,2.021c3.977,0.657,7.97,1.488,11.979,2.489c8.894,2.317,15.471,5.966,19.73,10.945
                C738.773,486.838,740.904,493.055,740.904,500.508z"/>
            <path d="M873.47,479.744c0,8.707-1.33,16.63-3.989,23.77c-2.658,7.141-6.146,13.029-10.462,17.664
                c-4.504,4.885-9.603,8.582-15.295,11.086s-11.792,3.758-18.298,3.758c-6.006,0-11.104-0.643-15.296-1.926
                c-4.192-1.283-8.478-3.084-12.854-5.402v43.969h-33.917V428.447h33.917v10.992c5.19-4.134,10.492-7.484,15.904-10.053
                c5.41-2.567,11.65-3.852,18.721-3.852c13.136,0,23.349,4.824,30.637,14.469C869.824,449.649,873.47,462.896,873.47,479.744z
                M838.613,480.451c0-10.256-1.75-17.699-5.249-22.326c-3.5-4.627-9.031-6.942-16.591-6.942c-3.189,0-6.471,0.486-9.844,1.455
                c-3.375,0.969-6.593,2.36-9.654,4.173v53.001c2.248,0.876,4.654,1.439,7.218,1.689c2.562,0.25,5.093,0.374,7.593,0.374
                c8.936,0,15.592-2.61,19.966-7.831C836.426,498.822,838.613,490.959,838.613,480.451z"/>
            <path d="M1001.807,487.449h-77.416c0.502,8.268,3.648,14.594,9.443,18.978c5.793,4.385,14.326,6.577,25.602,6.577
                c7.141,0,14.061-1.283,20.764-3.853c6.701-2.567,11.992-5.323,15.877-8.268h3.758v27.151c-7.643,3.07-14.844,5.294-21.609,6.671
                c-6.764,1.377-14.248,2.067-22.453,2.067c-21.172,0-37.393-4.76-48.667-14.281c-11.274-9.52-16.911-23.08-16.911-40.681
                c0-17.412,5.339-31.207,16.019-41.386c10.679-10.177,25.319-15.267,43.923-15.267c17.16,0,30.064,4.338,38.707,13.012
                c8.645,8.676,12.965,21.155,12.965,37.44V487.449z M968.172,467.625c-0.188-7.077-1.941-12.402-5.26-15.972
                c-3.32-3.57-8.488-5.355-15.502-5.355c-6.516,0-11.871,1.691-16.066,5.073c-4.197,3.382-6.545,8.801-7.047,16.254H968.172z"/>
            <path d="M1102.148,460.672h-3c-1.438-0.5-3.75-0.876-6.938-1.127c-3.188-0.25-5.844-0.375-7.969-0.375
                c-4.811,0-9.061,0.314-12.748,0.939c-3.688,0.627-7.658,1.691-11.906,3.194v70.652h-33.916V428.447h33.916v15.502
                c7.438-6.389,13.904-10.631,19.404-12.73c5.498-2.098,10.562-3.147,15.188-3.147c1.186,0,2.531,0.032,4.031,0.094
                c1.5,0.063,2.812,0.157,3.938,0.282V460.672z"/>
            <path d="M1156.17,413.415h-35.795v-25.649h35.795V413.415z M1155.23,533.955h-33.916V428.447h33.916V533.955z"/>
            <path d="M1254.537,533.025c-3.633,0.937-7.486,1.669-11.557,2.201c-4.072,0.529-9.051,0.795-14.938,0.795
                c-13.154,0-22.941-2.662-29.359-7.986c-6.422-5.322-9.631-14.436-9.631-27.34v-49.324h-13.904v-22.924h13.904v-30.159h33.916
                v30.159h31.568v22.924h-31.568v37.45c0,3.702,0.031,6.932,0.094,9.691c0.062,2.761,0.562,5.237,1.5,7.435
                c0.873,2.195,2.418,3.936,4.635,5.221c2.217,1.287,5.449,1.93,9.697,1.93c1.746,0,4.041-0.376,6.883-1.128
                c2.842-0.751,4.826-1.44,5.949-2.067h2.811V533.025z"/>
            <path d="M1322.322,496.65l24.074-68.203h34.787l-58.627,144.215h-36.713l16.775-39.514l-41.037-104.701h35.521
                L1322.322,496.65z"/>
        </g>
        <g id="4all">
            <path d="M1080.174,904.466h-24.412v41.729h-44.135v-41.729h-86.705v-33.913l83.818-103.902h47.021v105.105h24.412
                V904.466z M1011.627,871.756v-64.824l-52.139,64.824H1011.627z"/>
            <path d="M1192.135,931.404c-2.326,1.764-5.213,3.889-8.658,6.373c-3.449,2.486-6.695,4.449-9.742,5.893
                c-4.25,1.924-8.658,3.347-13.229,4.27c-4.568,0.92-9.58,1.383-15.031,1.383c-12.828,0-23.57-3.969-32.229-11.906
                c-8.658-7.937-12.988-18.078-12.988-30.425c0-9.86,2.203-17.919,6.613-24.172c4.408-6.253,10.662-11.184,18.762-14.792
                c8.016-3.607,17.957-6.172,29.822-7.695c11.865-1.522,24.172-2.646,36.92-3.367v-0.723c0-7.455-3.047-12.605-9.139-15.453
                c-6.094-2.844-15.074-4.269-26.939-4.269c-7.135,0-14.752,1.263-22.848,3.788c-8.1,2.525-13.91,4.471-17.438,5.832h-3.969v-32.59
                c4.57-1.202,12.006-2.625,22.309-4.27c10.301-1.642,20.623-2.465,30.965-2.465c24.611,0,42.391,3.789,53.336,11.365
                c10.943,7.576,16.414,19.463,16.414,35.656v91.877h-42.932V931.404z M1192.135,910.389v-28.051c-5.854,0.481-12.188,1.141-19,1.979
                c-6.816,0.838-11.986,1.817-15.514,2.937c-4.33,1.359-7.637,3.338-9.922,5.934c-2.285,2.598-3.428,6.014-3.428,10.248
                c0,2.799,0.24,5.076,0.723,6.835c0.48,1.759,1.684,3.437,3.607,5.034c1.844,1.599,4.047,2.777,6.613,3.535
                c2.566,0.76,6.574,1.139,12.027,1.139c4.328,0,8.717-0.877,13.168-2.636C1184.859,915.584,1188.768,913.268,1192.135,910.389z"/>
            <path d="M1318.283,945.715h-43.412V758.594h43.412V945.715z"/>
            <path d="M1402.465,945.715h-43.414V758.594h43.414V945.715z"/>
        </g>
    </symbol>
</svg>
