<?xml version="1.0" encoding="utf-8"?>
<!-- Generator: Adobe Illustrator 16.0.4, SVG Export Plug-In . SVG Version: 6.00 Build 0)  -->
<!DOCTYPE svg PUBLIC "-//W3C//DTD SVG 1.1//EN" "http://www.w3.org/Graphics/SVG/1.1/DTD/svg11.dtd">
<svg version="1.1" id="Layer_1" xmlns="http://www.w3.org/2000/svg" xmlns:xlink="http://www.w3.org/1999/xlink" x="0px" y="0px"
	 width="69px" height="82px" viewBox="19.5 19 69 82" enable-background="new 19.5 19 69 82" xml:space="preserve">
<g>
	<path d="M45.313,34.647c6.365,10.429,14.344,23.502,19.237,34.619c2.625-3.068,6.783-7.631,10.449-11.338V32h-31.3
		C44.226,32.865,44.764,33.747,45.313,34.647z"/>
	<path d="M65.855,72.374c1.541,3.865,2.62,7.418,3.018,10.442c0.454,3.457-0.195,6.477-1.782,8.285
		c-0.967,1.102-2.211,1.684-3.599,1.684c-1.235,0-2.506-0.635-3.576-1.788c-1.674-1.802-2.512-4.474-2.3-7.327
		c0.364-4.902,2.73-9.046,4.806-11.798c-4.699-11.134-13.067-24.844-19.669-35.661c-0.885-1.45-1.746-2.86-2.564-4.211H25v65h50
		V62.232C71.464,65.926,67.845,69.966,65.855,72.374z"/>
	<path d="M62.114,88.956c0.568,0.61,1.098,0.829,1.378,0.829c0.513,0,0.952-0.217,1.344-0.661c0.986-1.127,1.395-3.394,1.062-5.917
		c-0.308-2.34-1.064-5.046-2.153-7.997c-1.488,2.304-2.886,5.306-3.137,8.683C60.46,85.889,61.023,87.781,62.114,88.956z"/>
	<circle cx="80.5" cy="57.498" r="2.5"/>
	<path d="M43,25.999C43,27.653,41.655,29,39.999,29C38.344,29,37,27.653,37,25.999C37,24.343,38.344,23,39.999,23
		C41.655,23,43,24.343,43,25.999z"/>
</g>
</svg>
