<svg xmlns="http://www.w3.org/2000/svg" viewBox="0 0 612 792"><path fill="#414042" d="M375.155 403.587c0 49.547-40.166 89.717-89.724 89.717-49.547 0-89.721-40.17-89.721-89.717 0-49.554 40.174-89.724 89.721-89.724 49.558 0 89.724 40.17 89.724 89.724zM610.99 411.104c0 35.883-29.091 64.967-64.975 64.967-35.878 0-64.97-29.084-64.97-64.967 0-35.887 29.091-64.97 64.97-64.97 35.884.001 64.975 29.084 64.975 64.97zM170.12 564.244c0 25.632-20.773 46.412-46.408 46.412-25.625 0-46.405-20.78-46.405-46.412 0-25.628 20.78-46.401 46.405-46.401 25.635 0 46.408 20.773 46.408 46.401zM163.934 200.727c0 23.061-18.705 41.766-41.766 41.766-23.068 0-41.765-18.705-41.765-41.766 0-23.072 18.697-41.766 41.765-41.766 23.061 0 41.766 18.693 41.766 41.766z"/><path fill="none" stroke="#414042" stroke-width="6.923" stroke-miterlimit="10" d="M550.009 418.322L367.067 171.495"/><path fill="none" stroke="#414042" stroke-width="6.188" stroke-miterlimit="10" d="M115.979 565.794l290.823 68.066"/><path fill="none" stroke="#414042" stroke-width="5.961" stroke-miterlimit="10" d="M546.021 411.104L114.429 567.349"/><path fill="none" stroke="#414042" stroke-width="7.014" stroke-miterlimit="10" d="M380.645 171.495l14.133 479.135"/><path fill="none" stroke="#414042" stroke-width="5.379" stroke-miterlimit="10" d="M69.06 368.167L375.779 183.11"/><path fill="none" stroke="#414042" stroke-width="5.858" stroke-miterlimit="10" d="M399.066 635.407L71.964 359.455"/><path fill="none" stroke="#414042" stroke-width="6.177" stroke-miterlimit="10" d="M122.168 191.44l163.263 212.147"/><path fill="none" stroke="#414042" stroke-width="4.653" stroke-miterlimit="10" d="M282.855 409.61l84.212-238.115"/><path fill="none" stroke="#414042" stroke-width="5.848" stroke-miterlimit="10" d="M367.067 184.104l-244.899 15.631"/><path fill="none" stroke="#414042" stroke-width="6.188" stroke-miterlimit="10" d="M114.433 197.63l431.584 213.474M546.017 411.104L399.066 635.407"/><path fill="none" stroke="#414042" stroke-width="5.936" stroke-miterlimit="10" d="M399.066 635.407l-113.635-231.82"/><path fill="none" stroke="#414042" stroke-width="6.188" stroke-miterlimit="10" d="M71.964 359.455l59.891 215.675M71.964 359.455l50.204-168.015"/><path fill="none" stroke="#414042" stroke-width="5.079" stroke-miterlimit="10" d="M65.067 357.342l220.364 46.245"/><path fill="none" stroke="#414042" stroke-width="6.095" stroke-miterlimit="10" d="M274.144 421.226l284.248-13.215"/><path fill="none" stroke="#414042" stroke-width="6.804" stroke-miterlimit="10" d="M123.711 564.244l161.72-160.657"/><circle fill="#FFF" stroke="#414042" stroke-width="11.615" stroke-miterlimit="10" cx="368.069" cy="180.694" r="78.892"/><path fill="#FFF" stroke="#414042" stroke-width="11.615" stroke-miterlimit="10" d="M457.846 635.407c0 32.464-26.315 58.78-58.779 58.78-32.465 0-58.788-26.316-58.788-58.78s26.323-58.784 58.788-58.784c32.463 0 58.779 26.32 58.779 58.784zM136.93 359.455c0 35.886-29.087 64.97-64.966 64.97-35.886 0-64.974-29.084-64.974-64.97 0-35.875 29.087-64.966 64.974-64.966 35.878 0 64.966 29.091 64.966 64.966z"/></svg>
