<!-- Generator: Adobe Illustrator 16.0.0, SVG Export Plug-In . SVG Version: 6.00 Build 0)  -->
<svg version="1.2" baseProfile="tiny" id="Layer_1" xmlns="http://www.w3.org/2000/svg" xmlns:xlink="http://www.w3.org/1999/xlink"
	 x="0px" y="0px" width="612px" height="792px" viewBox="0 0 612 792" xml:space="preserve">
<line fill="none" stroke="#414042" stroke-width="1.2076" stroke-miterlimit="10" x1="1388.633" y1="-218.137" x2="1393.97" y2="-139.842"/>
<line fill="none" stroke="#414042" stroke-width="1.2076" stroke-miterlimit="10" x1="1336.46" y1="-187.721" x2="1393.97" y2="-139.842"/>
<line fill="none" stroke="#414042" stroke-width="1.0654" stroke-miterlimit="10" x1="1337.648" y1="-187.356" x2="1388.633" y2="-218.137"/>
<line fill="none" stroke="#414042" stroke-miterlimit="10" x1="1785.142" y1="-877.065" x2="1763.96" y2="-896.221"/>
<polygon fill="#FFFFFF" stroke="#414042" stroke-width="2" stroke-miterlimit="10" points="1731.459,-855.488 1786.674,-877.571 
	1778.191,-818.713 "/>
<line fill="none" stroke="#414042" stroke-miterlimit="10" x1="1778.191" y1="-818.713" x2="1746.96" y2="-821.721"/>
<line fill="none" stroke="#414042" stroke-miterlimit="10" x1="1785.142" y1="-877.065" x2="1798.46" y2="-855.221"/>
<line fill="none" stroke="#414042" stroke-miterlimit="10" x1="1734.6" y1="-853.653" x2="1737.96" y2="-877.221"/>
<g>
	<polyline points="2109.29,-478.476 2109.29,-394.49 2109.467,-395.499 2063.465,-361.934 2063.465,-362.481 2063.465,-446.467 
		2109.467,-480.03 	"/>
	
		<rect x="1979.564" y="-445.338" fill="#FFFFFF" stroke="#000000" stroke-width="2.0051" stroke-miterlimit="10" width="83.215" height="83.213"/>
	<polyline fill="#58595B" points="2108.718,-479.295 2025.507,-479.295 2025.943,-479.348 1979.069,-446.08 2062.279,-446.08 
		2062.72,-446.08 2109.592,-479.348 	"/>
</g>
<g>
	<g>
		<polyline points="1586.215,-478.476 1586.215,-394.49 1586.393,-395.499 1540.391,-361.934 1540.391,-362.481 1540.391,-446.467 
			1586.393,-480.03 		"/>
		
			<rect x="1456.49" y="-445.338" fill="#FFFFFF" stroke="#000000" stroke-width="2.0051" stroke-miterlimit="10" width="83.215" height="83.213"/>
		<polyline fill="#58595B" points="1585.644,-479.295 1502.433,-479.295 1502.869,-479.348 1455.995,-446.08 1539.205,-446.08 
			1539.646,-446.08 1586.518,-479.348 		"/>
	</g>
	<text transform="matrix(1 0 0 1 1480.1792 -383.3135)" fill="#414042" font-family="'MyriadPro-Regular'" font-size="64">1</text>
</g>
<g>
	<g>
		<polyline points="1760.452,-478.476 1760.452,-394.49 1760.629,-395.499 1714.627,-361.934 1714.627,-362.481 1714.627,-446.467 
			1760.629,-480.03 		"/>
		
			<rect x="1630.726" y="-445.338" fill="#FFFFFF" stroke="#000000" stroke-width="2.0051" stroke-miterlimit="10" width="83.215" height="83.213"/>
		<polyline fill="#58595B" points="1759.88,-479.295 1676.669,-479.295 1677.105,-479.348 1630.231,-446.08 1713.441,-446.08 
			1713.882,-446.08 1760.754,-479.348 		"/>
	</g>
	<text transform="matrix(1 0 0 1 1656.9409 -383.3135)" fill="#414042" font-family="'MyriadPro-Regular'" font-size="64">2</text>
</g>
<g>
	<g>
		<polyline points="1935.952,-478.476 1935.952,-394.49 1936.129,-395.499 1890.127,-361.934 1890.127,-362.481 1890.127,-446.467 
			1936.129,-480.03 		"/>
		
			<rect x="1806.226" y="-445.338" fill="#FFFFFF" stroke="#000000" stroke-width="2.0051" stroke-miterlimit="10" width="83.215" height="83.213"/>
		<polyline fill="#58595B" points="1935.38,-479.295 1852.169,-479.295 1852.605,-479.348 1805.731,-446.08 1888.941,-446.08 
			1889.382,-446.08 1936.254,-479.348 		"/>
	</g>
	<text transform="matrix(1 0 0 1 1832.4409 -383.3135)" fill="#414042" font-family="'MyriadPro-Regular'" font-size="64">3</text>
</g>
<polyline fill="#A7A9AC" fill-opacity="0.5" stroke="#414042" stroke-width="1.0654" stroke-miterlimit="10" points="
	978.904,-648.997 921.904,-653.258 952.802,-610.108 976.773,-648.464 "/>
<polyline fill="#A7A9AC" fill-opacity="0.5" stroke="#414042" stroke-width="1.0654" stroke-miterlimit="10" points="
	922.437,-651.66 903.792,-684.688 955.465,-685.221 954.133,-685.487 921.904,-653.258 "/>
<polyline fill="#A7A9AC" fill-opacity="0.5" stroke="#414042" stroke-width="1.0654" stroke-miterlimit="10" points="
	922.437,-651.66 904.059,-622.095 885.147,-654.856 924.035,-654.323 "/>
<circle fill="#414042" cx="921.904" cy="-653.258" r="15.449"/>
<circle fill="#414042" cx="954.133" cy="-685.487" r="13.584"/>
<circle fill="#414042" cx="976.773" cy="-648.464" r="11.187"/>
<circle fill="#414042" cx="885.147" cy="-654.856" r="11.187"/>
<circle fill="#414042" cx="951.47" cy="-609.842" r="10.122"/>
<circle fill="#414042" cx="904.059" cy="-622.095" r="7.991"/>
<circle fill="#414042" cx="903.792" cy="-684.688" r="7.192"/>
<line fill="none" stroke="#414042" stroke-width="1.0654" stroke-miterlimit="10" x1="976.138" y1="-646.175" x2="956.368" y2="-687.243"/>
<line fill="none" stroke="#414042" stroke-width="1.0654" stroke-miterlimit="10" x1="902.727" y1="-621.828" x2="952.802" y2="-610.108"/>
<line fill="none" stroke="#414042" stroke-width="1.0654" stroke-miterlimit="10" x1="903.792" y1="-684.688" x2="978.904" y2="-648.997"/>
<line fill="none" stroke="#414042" stroke-width="1.0654" stroke-miterlimit="10" x1="978.904" y1="-648.997" x2="901.128" y2="-621.295"/>
<line fill="none" stroke="#414042" stroke-width="1.0654" stroke-miterlimit="10" x1="885.147" y1="-654.856" x2="902.194" y2="-684.155"/>
<line fill="none" stroke="#414042" stroke-width="1.0654" stroke-miterlimit="10" x1="903.792" y1="-686.286" x2="904.059" y2="-622.095"/>
<line fill="none" stroke="#414042" stroke-width="1.0654" stroke-miterlimit="10" x1="956.368" y1="-687.243" x2="951.47" y2="-609.842"/>
<line fill="none" stroke="#414042" stroke-width="1.0654" stroke-miterlimit="10" x1="953.867" y1="-686.819" x2="902.194" y2="-619.697"/>
<line fill="none" stroke="#414042" stroke-width="1.0654" stroke-miterlimit="10" x1="903.792" y1="-686.286" x2="952.802" y2="-610.108"/>
<line fill="none" stroke="#414042" stroke-width="1.0654" stroke-miterlimit="10" x1="887.811" y1="-654.856" x2="979.437" y2="-646.333"/>
<polyline fill="none" stroke="#414042" stroke-width="1.0654" stroke-miterlimit="10" points="995.404,-516.997 938.404,-521.258 
	969.302,-478.108 993.273,-516.464 "/>
<polyline fill="none" stroke="#414042" stroke-width="1.0654" stroke-miterlimit="10" points="938.937,-519.66 920.292,-552.688 
	971.965,-553.221 970.633,-553.487 938.404,-521.258 "/>
<polyline fill="none" stroke="#414042" stroke-width="1.0654" stroke-miterlimit="10" points="938.937,-519.66 920.559,-490.095 
	901.647,-522.856 940.535,-522.323 "/>
<circle fill="#414042" cx="938.404" cy="-521.258" r="15.449"/>
<circle fill="#414042" cx="970.633" cy="-553.487" r="13.584"/>
<circle fill="#414042" cx="993.273" cy="-516.464" r="11.187"/>
<circle fill="#414042" cx="901.647" cy="-522.856" r="11.187"/>
<circle fill="#414042" cx="967.97" cy="-477.842" r="10.122"/>
<circle fill="#414042" cx="920.559" cy="-490.095" r="7.991"/>
<circle fill="#414042" cx="920.292" cy="-552.688" r="7.192"/>
<line fill="none" stroke="#414042" stroke-width="1.0654" stroke-miterlimit="10" x1="992.638" y1="-514.175" x2="972.868" y2="-555.243"/>
<line fill="none" stroke="#414042" stroke-width="1.0654" stroke-miterlimit="10" x1="919.227" y1="-489.828" x2="969.302" y2="-478.108"/>
<line fill="none" stroke="#414042" stroke-width="1.0654" stroke-miterlimit="10" x1="920.292" y1="-552.688" x2="995.404" y2="-516.997"/>
<line fill="none" stroke="#414042" stroke-width="1.0654" stroke-miterlimit="10" x1="995.404" y1="-516.997" x2="917.628" y2="-489.295"/>
<line fill="none" stroke="#414042" stroke-width="1.0654" stroke-miterlimit="10" x1="901.647" y1="-522.856" x2="918.694" y2="-552.155"/>
<line fill="none" stroke="#414042" stroke-width="1.0654" stroke-miterlimit="10" x1="920.292" y1="-554.286" x2="920.559" y2="-490.095"/>
<line fill="none" stroke="#414042" stroke-width="1.0654" stroke-miterlimit="10" x1="972.868" y1="-555.243" x2="967.97" y2="-477.842"/>
<line fill="none" stroke="#414042" stroke-width="1.0654" stroke-miterlimit="10" x1="970.367" y1="-554.819" x2="918.694" y2="-487.697"/>
<line fill="none" stroke="#414042" stroke-width="1.0654" stroke-miterlimit="10" x1="920.292" y1="-554.286" x2="969.302" y2="-478.108"/>
<line fill="none" stroke="#414042" stroke-width="1.0654" stroke-miterlimit="10" x1="904.311" y1="-522.856" x2="995.937" y2="-514.333"/>
<g>
	<polyline fill="none" stroke="#414042" stroke-width="1.0654" stroke-miterlimit="10" points="1132.904,-610.997 
		1075.904,-615.258 1106.802,-572.108 1130.773,-610.464 	"/>
	<polyline fill="none" stroke="#414042" stroke-width="1.0654" stroke-miterlimit="10" points="1076.437,-613.66 1057.792,-646.688 
		1109.465,-647.221 1108.133,-647.487 1075.904,-615.258 	"/>
	<polyline fill="none" stroke="#414042" stroke-width="1.0654" stroke-miterlimit="10" points="1076.437,-613.66 1058.059,-584.095 
		1039.147,-616.856 1078.035,-616.323 	"/>
	<circle fill="#414042" cx="1075.904" cy="-615.258" r="15.449"/>
	<circle fill="#414042" cx="1108.133" cy="-647.487" r="13.584"/>
	<circle fill="#414042" cx="1130.773" cy="-610.464" r="11.187"/>
	<circle fill="#414042" cx="1039.147" cy="-616.856" r="11.187"/>
	<circle fill="#414042" cx="1105.47" cy="-571.842" r="10.122"/>
	<circle fill="#414042" cx="1058.059" cy="-584.095" r="7.991"/>
	<circle fill="#414042" cx="1057.792" cy="-646.688" r="7.192"/>
	
		<line fill="none" stroke="#414042" stroke-width="1.0654" stroke-miterlimit="10" x1="1130.138" y1="-608.175" x2="1110.368" y2="-649.243"/>
	
		<line fill="none" stroke="#414042" stroke-width="1.0654" stroke-miterlimit="10" x1="1056.727" y1="-583.828" x2="1106.802" y2="-572.108"/>
	
		<line fill="none" stroke="#414042" stroke-width="1.0654" stroke-miterlimit="10" x1="1057.792" y1="-646.688" x2="1132.904" y2="-610.997"/>
	
		<line fill="none" stroke="#414042" stroke-width="1.0654" stroke-miterlimit="10" x1="1132.904" y1="-610.997" x2="1055.128" y2="-583.295"/>
	
		<line fill="none" stroke="#414042" stroke-width="1.0654" stroke-miterlimit="10" x1="1039.147" y1="-616.856" x2="1056.194" y2="-646.155"/>
	
		<line fill="none" stroke="#414042" stroke-width="1.0654" stroke-miterlimit="10" x1="1057.792" y1="-648.286" x2="1058.059" y2="-584.095"/>
	
		<line fill="none" stroke="#414042" stroke-width="1.0654" stroke-miterlimit="10" x1="1110.368" y1="-649.243" x2="1105.47" y2="-571.842"/>
	
		<line fill="none" stroke="#414042" stroke-width="1.0654" stroke-miterlimit="10" x1="1039.147" y1="-616.856" x2="1107.96" y2="-649.221"/>
	
		<line fill="none" stroke="#414042" stroke-width="1.0654" stroke-miterlimit="10" x1="1105.47" y1="-571.842" x2="1039.147" y2="-616.856"/>
</g>
<g>
	<circle fill="#414042" cx="1535.404" cy="-579.758" r="15.449"/>
	<circle fill="#414042" cx="1549.633" cy="-618.137" r="13.584"/>
	<circle fill="#414042" cx="1580.273" cy="-578.464" r="11.187"/>
	<circle fill="#414042" cx="1498.647" cy="-587.356" r="11.187"/>
	<circle fill="#414042" cx="1554.97" cy="-539.842" r="10.122"/>
	<circle fill="#414042" cx="1507.559" cy="-552.095" r="7.991"/>
	<circle fill="#414042" cx="1507.292" cy="-614.688" r="7.191"/>
	
		<line fill="none" stroke="#414042" stroke-width="1.2076" stroke-miterlimit="10" x1="1579.638" y1="-576.175" x2="1549.46" y2="-619.721"/>
	
		<line fill="none" stroke="#414042" stroke-width="1.0654" stroke-miterlimit="10" x1="1506.227" y1="-551.828" x2="1556.302" y2="-540.108"/>
	
		<line fill="none" stroke="#414042" stroke-width="1.0654" stroke-miterlimit="10" x1="1582.404" y1="-578.997" x2="1504.628" y2="-551.295"/>
	
		<line fill="none" stroke="#414042" stroke-width="1.2076" stroke-miterlimit="10" x1="1551.798" y1="-619.721" x2="1554.232" y2="-537.221"/>
	
		<line fill="none" stroke="#414042" stroke-width="1.0654" stroke-miterlimit="10" x1="1488.648" y1="-584.856" x2="1557.46" y2="-617.221"/>
	
		<line fill="none" stroke="#414042" stroke-width="1.0087" stroke-miterlimit="10" x1="1554.97" y1="-539.842" x2="1498.648" y2="-587.356"/>
	
		<line fill="none" stroke="#414042" stroke-width="1.0654" stroke-miterlimit="10" x1="1507.292" y1="-616.286" x2="1532.404" y2="-575.258"/>
	
		<line fill="none" stroke="#414042" stroke-width="0.9649" stroke-miterlimit="10" x1="1532.404" y1="-575.258" x2="1551.798" y2="-619.721"/>
	
		<line fill="none" stroke="#414042" stroke-width="1.0654" stroke-miterlimit="10" x1="1557.46" y1="-617.221" x2="1507.292" y2="-614.688"/>
	
		<line fill="none" stroke="#414042" stroke-width="1.0654" stroke-miterlimit="10" x1="1505.96" y1="-615.221" x2="1580.273" y2="-578.464"/>
	
		<line fill="none" stroke="#414042" stroke-width="1.0654" stroke-miterlimit="10" x1="1580.273" y1="-578.464" x2="1554.97" y2="-539.842"/>
	
		<line fill="none" stroke="#414042" stroke-width="1.0221" stroke-miterlimit="10" x1="1554.97" y1="-539.842" x2="1535.404" y2="-579.758"/>
	
		<line fill="none" stroke="#414042" stroke-width="1.0654" stroke-miterlimit="10" x1="1498.648" y1="-587.356" x2="1508.96" y2="-550.221"/>
	
		<line fill="none" stroke="#414042" stroke-width="1.0654" stroke-miterlimit="10" x1="1498.648" y1="-587.356" x2="1507.292" y2="-616.286"/>
	
		<line fill="none" stroke="#414042" stroke-width="0.8745" stroke-miterlimit="10" x1="1497.46" y1="-587.721" x2="1535.404" y2="-579.758"/>
	
		<line fill="none" stroke="#414042" stroke-width="1.0495" stroke-miterlimit="10" x1="1533.46" y1="-576.721" x2="1582.404" y2="-578.997"/>
	
		<line fill="none" stroke="#414042" stroke-width="1.1716" stroke-miterlimit="10" x1="1507.558" y1="-552.095" x2="1535.404" y2="-579.758"/>
</g>
<g>
	<circle fill="#414042" cx="1361.404" cy="-321.758" r="15.449"/>
	<circle fill="#414042" cx="1406.273" cy="-320.464" r="11.187"/>
	<circle fill="#414042" cx="1333.559" cy="-294.095" r="7.991"/>
	<circle fill="#414042" cx="1333.292" cy="-356.688" r="7.191"/>
	
		<line fill="none" stroke="#414042" stroke-width="1.1921" stroke-miterlimit="10" x1="1406.96" y1="-319.221" x2="1375.46" y2="-361.721"/>
	
		<line fill="none" stroke="#414042" stroke-width="1.0654" stroke-miterlimit="10" x1="1332.227" y1="-293.828" x2="1382.302" y2="-282.108"/>
	
		<line fill="none" stroke="#414042" stroke-width="1.0263" stroke-miterlimit="10" x1="1406.273" y1="-320.464" x2="1331.96" y2="-293.561"/>
	
		<line fill="none" stroke="#414042" stroke-width="1.2076" stroke-miterlimit="10" x1="1377.798" y1="-361.721" x2="1380.232" y2="-279.221"/>
	
		<line fill="none" stroke="#414042" stroke-width="0.9261" stroke-miterlimit="10" x1="1324.148" y1="-327.856" x2="1376.96" y2="-359.721"/>
	
		<line fill="none" stroke="#414042" stroke-width="1.0087" stroke-miterlimit="10" x1="1380.97" y1="-281.842" x2="1324.648" y2="-329.356"/>
	
		<line fill="none" stroke="#414042" stroke-width="1.0637" stroke-miterlimit="10" x1="1333.292" y1="-358.286" x2="1361.404" y2="-321.758"/>
	
		<line fill="none" stroke="#414042" stroke-width="0.8011" stroke-miterlimit="10" x1="1360.96" y1="-320.721" x2="1375.46" y2="-361.721"/>
	
		<line fill="none" stroke="#414042" stroke-width="1.0069" stroke-miterlimit="10" x1="1375.46" y1="-359.55" x2="1333.292" y2="-356.858"/>
	
		<line fill="none" stroke="#414042" stroke-width="1.0654" stroke-miterlimit="10" x1="1331.96" y1="-357.221" x2="1406.273" y2="-320.464"/>
	
		<line fill="none" stroke="#414042" stroke-width="1.0654" stroke-miterlimit="10" x1="1406.273" y1="-320.464" x2="1380.97" y2="-281.842"/>
	
		<line fill="none" stroke="#414042" stroke-width="1.0221" stroke-miterlimit="10" x1="1380.97" y1="-281.842" x2="1361.404" y2="-321.758"/>
	
		<line fill="none" stroke="#414042" stroke-width="1.0654" stroke-miterlimit="10" x1="1324.648" y1="-329.356" x2="1334.96" y2="-292.221"/>
	
		<line fill="none" stroke="#414042" stroke-width="1.0654" stroke-miterlimit="10" x1="1324.648" y1="-329.356" x2="1333.292" y2="-358.286"/>
	
		<line fill="none" stroke="#414042" stroke-width="0.8745" stroke-miterlimit="10" x1="1323.46" y1="-329.721" x2="1361.404" y2="-321.758"/>
	
		<line fill="none" stroke="#414042" stroke-width="1.0495" stroke-miterlimit="10" x1="1359.46" y1="-318.721" x2="1408.404" y2="-320.996"/>
	
		<line fill="none" stroke="#414042" stroke-width="1.1716" stroke-miterlimit="10" x1="1333.558" y1="-294.095" x2="1361.404" y2="-321.758"/>
	<circle fill="#FFFFFF" stroke="#414042" stroke-width="2" stroke-miterlimit="10" cx="1375.633" cy="-360.137" r="13.584"/>
	<circle fill="#FFFFFF" stroke="#414042" stroke-width="2" stroke-miterlimit="10" cx="1380.97" cy="-281.842" r="10.122"/>
	<circle fill="#FFFFFF" stroke="#414042" stroke-width="2" stroke-miterlimit="10" cx="1324.647" cy="-329.356" r="11.187"/>
</g>
<g>
	<g>
		<path d="M546.017,352.631c-12.194,0-23.514,3.737-32.885,10.123L423.7,242.092c16.734-15.177,27.261-37.08,27.261-61.397
			c0-45.707-37.185-82.892-82.892-82.892s-82.892,37.185-82.892,82.892c0,1.915,0.089,3.81,0.217,5.693l-113.616,7.251
			c-3.445-24.326-24.344-43.03-49.611-43.03c-27.681,0-50.118,22.432-50.118,50.118c0,20.654,12.501,38.391,30.35,46.062
			l-13.677,45.77c-5.368-1.346-10.98-2.069-16.76-2.069c-38.032,0-68.974,30.938-68.974,68.966c0,38.03,30.941,68.97,68.974,68.97
			c5.313,0,10.48-0.624,15.451-1.767l25.666,92.423c-20.5,4.808-35.773,23.195-35.773,45.163c0,25.632,20.78,46.412,46.405,46.412
			c19.755,0,36.612-12.347,43.311-29.738l170.96,40.013c-1.103,4.651-1.704,9.493-1.704,14.477c0,34.617,28.167,62.78,62.788,62.78
			c34.617,0,62.78-28.163,62.78-62.78c0-20.821-10.196-39.298-25.848-50.727l80.613-123.047c8.641,5.039,18.683,7.939,29.406,7.939
			c32.294,0,58.476-26.175,58.476-58.47C604.493,378.807,578.311,352.631,546.017,352.631z M158.935,534.049l53.014-52.666
			l39.392,33.231l-85.195,30.842C164.299,541.295,161.861,537.458,158.935,534.049z M216.121,477.237l14.485-14.39
			c14.4,13.328,33.657,21.484,54.825,21.484c11.702,0,22.812-2.509,32.85-6.985l5.426,11.069l-66.01,23.896L216.121,477.237z
			 M165.3,226.242l73.515,36.363l-39.597,23.891l-40.021-52.003C161.503,231.967,163.546,229.2,165.3,226.242z M244.537,265.436
			l73.911,36.559l-8.692,24.577c-7.677-2.423-15.846-3.735-24.324-3.735c-17.43,0-33.557,5.542-46.754,14.935l-36.158-46.984
			L244.537,265.436z M488.123,402.949l-97.105,1.246l-1.985-67.288L492.3,387.986C490.274,392.688,488.854,397.707,488.123,402.949z
			 M384.003,404.285l-17.844,0.229c0.003-0.31,0.023-0.616,0.023-0.927c0-34.482-21.618-63.898-52.036-75.478l8.501-24.038
			l59.264,29.313L384.003,404.285z M324.726,298.195l14.126-39.941c9.093,3.437,18.936,5.332,29.217,5.332
			c3.993,0,7.915-0.301,11.759-0.849l1.877,63.642L324.726,298.195z M334.545,256.478l-14.019,39.641l-69.701-34.477l51.22-30.903
			C310.482,241.844,321.653,250.752,334.545,256.478z M233.775,341.529c-13.094,10.912-22.668,25.892-26.809,42.996l-66.929-14.045
			c0.58-3.592,0.892-7.272,0.892-11.025c0-9.939-2.13-19.386-5.932-27.931l62.198-37.526L233.775,341.529z M139.035,375.459
			l66.897,14.039c-0.806,4.578-1.25,9.28-1.25,14.089c0,20.978,8.004,40.083,21.121,54.439l-14.904,14.806l-84.415-71.214
			C132.388,394.001,136.729,385.124,139.035,375.459z M326.347,493.801l42.459,86.617c-5.895,3.256-11.209,7.434-15.757,12.335
			l-90.092-76.004L326.347,493.801z M374.133,577.799l-42.171-86.031l54.045-19.565l2.986,101.239
			C383.8,574.283,378.82,575.763,374.133,577.799z M329.322,486.383l-5.705-11.639c23.975-12.891,40.673-37.539,42.402-66.228
			l18.103-0.232l1.701,57.646L329.322,486.383z M391.135,408.194l96.571-1.239c-0.096,1.372-0.163,2.752-0.163,4.148
			c0,5.943,0.893,11.677,2.542,17.08l-97.321,35.232L391.135,408.194z M507.657,366.993c-5.032,4.38-9.306,9.601-12.603,15.452
			l-106.228-52.544l-2.02-68.478c11.647-2.702,22.359-7.856,31.56-14.902L507.657,366.993z M285.996,192.209
			c1.742,12.475,6.264,24.067,12.929,34.13l-53.821,32.473l-76.982-38.077c2.674-6.131,4.167-12.895,4.167-20.008
			c0-0.422-0.021-0.839-0.032-1.258L285.996,192.209z M108.237,248.868c4.424,1.278,9.095,1.978,13.931,1.978
			c12.43,0,23.796-4.539,32.557-12.035l39.17,50.897l-61.268,36.966c-8.135-14.994-21.673-26.636-37.977-32.333L108.237,248.868z
			 M93.377,425.004c11.354-3.719,21.421-10.302,29.334-18.904l84.016,70.878l-52.589,52.244
			c-8.147-7.082-18.781-11.379-30.426-11.379c-1.516,0-3.013,0.078-4.492,0.221L93.377,425.004z M168.855,574.992
			c0.818-3.451,1.264-7.047,1.264-10.748c0-4.585-0.675-9.011-1.914-13.193l88.393-32l92.67,78.179
			c-4.083,5.313-7.332,11.294-9.56,17.75L168.855,574.992z M430.827,581.283c-9.325-5.494-20.177-8.66-31.76-8.66
			c-1.032,0-2.058,0.028-3.079,0.078l-3.038-103.012l99.161-35.898c4.131,9.803,10.862,18.236,19.324,24.453L430.827,581.283z"/>
	</g>
	<g>
		<path fill="none" stroke="#000000" stroke-miterlimit="10" d="M546.017,352.631c-12.194,0-23.514,3.737-32.885,10.123
			L423.7,242.092c16.734-15.177,27.261-37.08,27.261-61.397c0-45.707-37.185-82.892-82.892-82.892s-82.892,37.185-82.892,82.892
			c0,1.915,0.089,3.81,0.217,5.693l-113.616,7.251c-3.445-24.326-24.344-43.03-49.611-43.03c-27.681,0-50.118,22.432-50.118,50.118
			c0,20.654,12.501,38.391,30.35,46.062l-13.677,45.77c-5.368-1.346-10.98-2.069-16.76-2.069c-38.032,0-68.974,30.938-68.974,68.966
			c0,38.03,30.941,68.97,68.974,68.97c5.313,0,10.48-0.624,15.451-1.767l25.666,92.423c-20.5,4.808-35.773,23.195-35.773,45.163
			c0,25.632,20.78,46.412,46.405,46.412c19.755,0,36.612-12.347,43.311-29.738l170.96,40.013c-1.103,4.651-1.704,9.493-1.704,14.477
			c0,34.617,28.167,62.78,62.788,62.78c34.617,0,62.78-28.163,62.78-62.78c0-20.821-10.196-39.298-25.848-50.727l80.613-123.047
			c8.641,5.039,18.683,7.939,29.406,7.939c32.294,0,58.476-26.175,58.476-58.47C604.493,378.807,578.311,352.631,546.017,352.631z
			 M158.935,534.049l53.014-52.666l39.392,33.231l-85.195,30.842C164.299,541.295,161.861,537.458,158.935,534.049z
			 M216.121,477.237l14.485-14.39c14.4,13.328,33.657,21.484,54.825,21.484c11.702,0,22.812-2.509,32.85-6.985l5.426,11.069
			l-66.01,23.896L216.121,477.237z M165.3,226.242l73.515,36.363l-39.597,23.891l-40.021-52.003
			C161.503,231.967,163.546,229.2,165.3,226.242z M244.537,265.436l73.911,36.559l-8.692,24.577
			c-7.677-2.423-15.846-3.735-24.324-3.735c-17.43,0-33.557,5.542-46.754,14.935l-36.158-46.984L244.537,265.436z M488.123,402.949
			l-97.105,1.246l-1.985-67.288L492.3,387.986C490.274,392.688,488.854,397.707,488.123,402.949z M384.003,404.285l-17.844,0.229
			c0.003-0.31,0.023-0.616,0.023-0.927c0-34.482-21.618-63.898-52.036-75.478l8.501-24.038l59.264,29.313L384.003,404.285z
			 M324.726,298.195l14.126-39.941c9.093,3.437,18.936,5.332,29.217,5.332c3.993,0,7.915-0.301,11.759-0.849l1.877,63.642
			L324.726,298.195z M334.545,256.478l-14.019,39.641l-69.701-34.477l51.22-30.903C310.482,241.844,321.653,250.752,334.545,256.478
			z M233.775,341.529c-13.094,10.912-22.668,25.892-26.809,42.996l-66.929-14.045c0.58-3.592,0.892-7.272,0.892-11.025
			c0-9.939-2.13-19.386-5.932-27.931l62.198-37.526L233.775,341.529z M139.035,375.459l66.897,14.039
			c-0.806,4.578-1.25,9.28-1.25,14.089c0,20.978,8.004,40.083,21.121,54.439l-14.904,14.806l-84.415-71.214
			C132.388,394.001,136.729,385.124,139.035,375.459z M326.347,493.801l42.459,86.617c-5.895,3.256-11.209,7.434-15.757,12.335
			l-90.092-76.004L326.347,493.801z M374.133,577.799l-42.171-86.031l54.045-19.565l2.986,101.239
			C383.8,574.283,378.82,575.763,374.133,577.799z M329.322,486.383l-5.705-11.639c23.975-12.891,40.673-37.539,42.402-66.228
			l18.103-0.232l1.701,57.646L329.322,486.383z M391.135,408.194l96.571-1.239c-0.096,1.372-0.163,2.752-0.163,4.148
			c0,5.943,0.893,11.677,2.542,17.08l-97.321,35.232L391.135,408.194z M507.657,366.993c-5.032,4.38-9.306,9.601-12.603,15.452
			l-106.228-52.544l-2.02-68.478c11.647-2.702,22.359-7.856,31.56-14.902L507.657,366.993z M285.996,192.209
			c1.742,12.475,6.264,24.067,12.929,34.13l-53.821,32.473l-76.982-38.077c2.674-6.131,4.167-12.895,4.167-20.008
			c0-0.422-0.021-0.839-0.032-1.258L285.996,192.209z M108.237,248.868c4.424,1.278,9.095,1.978,13.931,1.978
			c12.43,0,23.796-4.539,32.557-12.035l39.17,50.897l-61.268,36.966c-8.135-14.994-21.673-26.636-37.977-32.333L108.237,248.868z
			 M93.377,425.004c11.354-3.719,21.421-10.302,29.334-18.904l84.016,70.878l-52.589,52.244
			c-8.147-7.082-18.781-11.379-30.426-11.379c-1.516,0-3.013,0.078-4.492,0.221L93.377,425.004z M168.855,574.992
			c0.818-3.451,1.264-7.047,1.264-10.748c0-4.585-0.675-9.011-1.914-13.193l88.393-32l92.67,78.179
			c-4.083,5.313-7.332,11.294-9.56,17.75L168.855,574.992z M430.827,581.283c-9.325-5.494-20.177-8.66-31.76-8.66
			c-1.032,0-2.058,0.028-3.079,0.078l-3.038-103.012l99.161-35.898c4.131,9.803,10.862,18.236,19.324,24.453L430.827,581.283z"/>
	</g>
</g>
<g>
	<circle fill="#414042" cx="1374.154" cy="-178.008" r="11.699"/>
	<circle fill="#414042" cx="1564.154" cy="-196.008" r="10.199"/>
	<circle fill="#414042" cx="1419.273" cy="-178.464" r="11.187"/>
	<circle fill="#414042" cx="1612.273" cy="-192.464" r="11.187"/>
	<circle fill="#414042" cx="1346.559" cy="-152.095" r="7.991"/>
	<circle fill="#414042" cx="1539.059" cy="-165.095" r="7.991"/>
	<circle fill="#414042" cx="1566.059" cy="-238.095" r="7.991"/>
	<circle fill="#414042" cx="1346.292" cy="-214.688" r="7.191"/>
	<circle fill="#414042" cx="1540.792" cy="-234.688" r="7.191"/>
	
		<line fill="none" stroke="#414042" stroke-width="1.0654" stroke-miterlimit="10" x1="1345.227" y1="-151.828" x2="1395.302" y2="-140.108"/>
	
		<line fill="none" stroke="#414042" stroke-width="0.9649" stroke-miterlimit="10" x1="1371.404" y1="-175.258" x2="1390.798" y2="-219.721"/>
	
		<line fill="none" stroke="#414042" stroke-width="1.0654" stroke-miterlimit="10" x1="1337.648" y1="-187.356" x2="1346.292" y2="-216.286"/>
	<circle fill="#FFFFFF" stroke="#414042" stroke-width="2" stroke-miterlimit="10" cx="1388.633" cy="-218.137" r="13.584"/>
	<circle fill="#FFFFFF" stroke="#414042" stroke-width="2" stroke-miterlimit="10" cx="1393.97" cy="-139.842" r="10.122"/>
	<circle fill="#FFFFFF" stroke="#414042" stroke-width="2" stroke-miterlimit="10" cx="1337.647" cy="-187.356" r="11.187"/>
</g>
<g>
	<circle fill="#414042" cx="1522.404" cy="-852.758" r="15.449"/>
	<circle fill="#414042" cx="1536.633" cy="-891.137" r="13.584"/>
	<circle fill="#414042" cx="1567.273" cy="-851.464" r="11.187"/>
	<circle fill="#414042" cx="1485.647" cy="-860.356" r="11.187"/>
	<circle fill="#414042" cx="1541.97" cy="-812.842" r="10.122"/>
	<circle fill="#414042" cx="1494.559" cy="-825.095" r="7.991"/>
	<circle fill="#414042" cx="1494.292" cy="-887.688" r="7.191"/>
	
		<line fill="none" stroke="#414042" stroke-width="1.2076" stroke-miterlimit="10" x1="1566.638" y1="-849.175" x2="1536.46" y2="-892.721"/>
	
		<line fill="none" stroke="#414042" stroke-width="1.0654" stroke-miterlimit="10" x1="1493.227" y1="-824.828" x2="1543.302" y2="-813.108"/>
	
		<line fill="none" stroke="#414042" stroke-width="1.0654" stroke-miterlimit="10" x1="1569.404" y1="-851.997" x2="1491.628" y2="-824.295"/>
	
		<line fill="none" stroke="#414042" stroke-width="1.2076" stroke-miterlimit="10" x1="1538.798" y1="-892.721" x2="1541.232" y2="-810.221"/>
	
		<line fill="none" stroke="#414042" stroke-width="1.0654" stroke-miterlimit="10" x1="1475.648" y1="-857.856" x2="1544.46" y2="-890.221"/>
	
		<line fill="none" stroke="#414042" stroke-width="1.0087" stroke-miterlimit="10" x1="1541.97" y1="-812.842" x2="1485.648" y2="-860.356"/>
	
		<line fill="none" stroke="#414042" stroke-width="1.0654" stroke-miterlimit="10" x1="1494.292" y1="-889.286" x2="1519.404" y2="-848.258"/>
	
		<line fill="none" stroke="#414042" stroke-width="0.9649" stroke-miterlimit="10" x1="1519.404" y1="-848.258" x2="1538.798" y2="-892.721"/>
	
		<line fill="none" stroke="#414042" stroke-width="1.0654" stroke-miterlimit="10" x1="1544.46" y1="-890.221" x2="1494.292" y2="-887.688"/>
	
		<line fill="none" stroke="#414042" stroke-width="1.0654" stroke-miterlimit="10" x1="1492.96" y1="-888.221" x2="1567.273" y2="-851.464"/>
	
		<line fill="none" stroke="#414042" stroke-width="1.0654" stroke-miterlimit="10" x1="1567.273" y1="-851.464" x2="1541.97" y2="-812.842"/>
	
		<line fill="none" stroke="#414042" stroke-width="1.0221" stroke-miterlimit="10" x1="1541.97" y1="-812.842" x2="1522.404" y2="-852.758"/>
	
		<line fill="none" stroke="#414042" stroke-width="1.0654" stroke-miterlimit="10" x1="1485.648" y1="-860.356" x2="1495.96" y2="-823.221"/>
	
		<line fill="none" stroke="#414042" stroke-width="1.0654" stroke-miterlimit="10" x1="1485.648" y1="-860.356" x2="1494.292" y2="-889.286"/>
	
		<line fill="none" stroke="#414042" stroke-width="0.8745" stroke-miterlimit="10" x1="1484.46" y1="-860.721" x2="1522.404" y2="-852.758"/>
	
		<line fill="none" stroke="#414042" stroke-width="1.0495" stroke-miterlimit="10" x1="1520.46" y1="-849.721" x2="1569.404" y2="-851.997"/>
	
		<line fill="none" stroke="#414042" stroke-width="1.1716" stroke-miterlimit="10" x1="1494.558" y1="-825.095" x2="1522.404" y2="-852.758"/>
</g>
<g>
	<circle fill="#414042" cx="1268.404" cy="-463.758" r="15.449"/>
	<circle fill="#414042" cx="1282.633" cy="-502.137" r="13.584"/>
	<circle fill="#414042" cx="1313.273" cy="-462.464" r="11.187"/>
	<circle fill="#414042" cx="1231.647" cy="-471.356" r="11.187"/>
	<circle fill="#414042" cx="1287.97" cy="-423.842" r="10.122"/>
	<circle fill="#414042" cx="1240.559" cy="-436.095" r="7.991"/>
	<circle fill="#414042" cx="1240.292" cy="-499.698" r="7.191"/>
	<line fill="none" stroke="#414042" stroke-miterlimit="10" x1="1240.292" y1="-500.286" x2="1269.46" y2="-462.721"/>
	<line fill="none" stroke="#414042" stroke-miterlimit="10" x1="1266.46" y1="-460.721" x2="1282.46" y2="-503.221"/>
	<line fill="none" stroke="#414042" stroke-miterlimit="10" x1="1287.97" y1="-423.842" x2="1268.404" y2="-463.758"/>
	<line fill="none" stroke="#414042" stroke-miterlimit="10" x1="1230.46" y1="-471.721" x2="1268.404" y2="-463.758"/>
	<line fill="none" stroke="#414042" stroke-miterlimit="10" x1="1266.46" y1="-460.721" x2="1315.404" y2="-462.997"/>
	<line fill="none" stroke="#414042" stroke-miterlimit="10" x1="1240.558" y1="-436.095" x2="1268.404" y2="-463.758"/>
</g>
<circle fill="#414042" cx="1419.154" cy="-699.508" r="11.699"/>
<circle fill="#414042" cx="1466.273" cy="-698.464" r="11.187"/>
<circle fill="#414042" cx="1393.559" cy="-672.095" r="7.991"/>
<circle fill="#414042" cx="1393.292" cy="-734.688" r="7.191"/>
<circle fill="#414042" cx="1406.292" cy="-751.188" r="3.691"/>
<circle fill="#414042" cx="1374.152" cy="-677.221" r="3.691"/>
<circle fill="#414042" cx="1406.152" cy="-655.721" r="3.691"/>
<circle fill="#414042" cx="1415.96" cy="-642.721" r="3.691"/>
<circle fill="#414042" cx="1470.46" cy="-675.221" r="3.691"/>
<circle fill="#414042" cx="1461.292" cy="-728.688" r="3.691"/>
<circle fill="#414042" cx="1458.792" cy="-749.688" r="3.691"/>
<circle fill="#414042" cx="1737.96" cy="-877.221" r="3.691"/>
<circle fill="#414042" cx="1717.46" cy="-881.721" r="3.691"/>
<circle fill="#414042" cx="1763.96" cy="-896.221" r="3.691"/>
<circle fill="#414042" cx="1798.46" cy="-855.221" r="3.691"/>
<circle fill="#414042" cx="1804.46" cy="-830.221" r="3.691"/>
<circle fill="#414042" cx="1905.46" cy="-935.221" r="3.691"/>
<circle fill="#414042" cx="1960.46" cy="-918.721" r="3.691"/>
<circle fill="#414042" cx="1959.46" cy="-884.721" r="3.691"/>
<circle fill="#414042" cx="1968.46" cy="-870.721" r="3.691"/>
<circle fill="#414042" cx="1902.96" cy="-887.721" r="3.691"/>
<circle fill="#414042" cx="1869.46" cy="-896.221" r="3.691"/>
<circle fill="#414042" cx="1909.46" cy="-870.221" r="3.691"/>
<circle fill="#414042" cx="1929.46" cy="-957.221" r="3.691"/>
<circle fill="#414042" cx="1743.46" cy="-808.221" r="3.691"/>
<circle fill="#414042" cx="1748.46" cy="-822.221" r="3.691"/>
<line fill="none" stroke="#414042" stroke-width="1.2076" stroke-miterlimit="10" x1="1465.638" y1="-696.175" x2="1435.46" y2="-739.721"/>
<line fill="none" stroke="#414042" stroke-width="1.0654" stroke-miterlimit="10" x1="1392.227" y1="-671.828" x2="1442.302" y2="-660.108"/>
<line fill="none" stroke="#414042" stroke-width="1.0654" stroke-miterlimit="10" x1="1468.404" y1="-698.997" x2="1390.628" y2="-671.295"/>
<line fill="none" stroke="#414042" stroke-width="2" stroke-miterlimit="10" x1="1437.798" y1="-739.721" x2="1440.232" y2="-657.221"/>
<line fill="none" stroke="#414042" stroke-width="2" stroke-miterlimit="10" x1="1374.648" y1="-704.856" x2="1443.46" y2="-737.221"/>
<line fill="none" stroke="#414042" stroke-width="2" stroke-miterlimit="10" x1="1440.97" y1="-659.842" x2="1384.648" y2="-707.356"/>
<line fill="none" stroke="#414042" stroke-width="1.0654" stroke-miterlimit="10" x1="1393.292" y1="-736.286" x2="1418.404" y2="-695.258"/>
<line fill="none" stroke="#414042" stroke-width="0.9649" stroke-miterlimit="10" x1="1418.404" y1="-695.258" x2="1437.798" y2="-739.721"/>
<line fill="none" stroke="#414042" stroke-miterlimit="10" x1="1443.46" y1="-737.221" x2="1393.292" y2="-734.688"/>
<line fill="none" stroke="#414042" stroke-miterlimit="10" x1="1391.96" y1="-735.221" x2="1466.273" y2="-698.464"/>
<line fill="none" stroke="#414042" stroke-width="1.0654" stroke-miterlimit="10" x1="1466.273" y1="-698.464" x2="1440.97" y2="-659.842"/>
<line fill="none" stroke="#414042" stroke-width="1.0221" stroke-miterlimit="10" x1="1440.97" y1="-659.842" x2="1421.404" y2="-699.758"/>
<line fill="none" stroke="#414042" stroke-width="1.0654" stroke-miterlimit="10" x1="1384.648" y1="-707.356" x2="1394.96" y2="-670.221"/>
<line fill="none" stroke="#414042" stroke-width="1.0654" stroke-miterlimit="10" x1="1384.648" y1="-707.356" x2="1393.292" y2="-736.286"/>
<line fill="none" stroke="#414042" stroke-width="0.8745" stroke-miterlimit="10" x1="1383.46" y1="-707.721" x2="1421.404" y2="-699.758"/>
<line fill="none" stroke="#414042" stroke-width="1.0495" stroke-miterlimit="10" x1="1419.46" y1="-696.721" x2="1468.404" y2="-698.997"/>
<line fill="none" stroke="#414042" stroke-width="1.1716" stroke-miterlimit="10" x1="1393.558" y1="-672.095" x2="1421.404" y2="-699.758"/>
<circle fill="#FFFFFF" stroke="#414042" stroke-width="2" stroke-miterlimit="10" cx="1435.633" cy="-738.137" r="13.584"/>
<circle fill="#FFFFFF" stroke="#414042" stroke-width="2" stroke-miterlimit="10" cx="1439.97" cy="-662.842" r="11.622"/>
<circle fill="#FFFFFF" stroke="#414042" stroke-width="2" stroke-miterlimit="10" cx="1383.397" cy="-706.106" r="12.437"/>
<polygon fill="#FFFFFF" stroke="#414042" stroke-width="1.3733" stroke-miterlimit="10" points="1233.294,-595.221 
	1263.028,-646.721 1292.762,-595.221 "/>
<line fill="none" stroke="#414042" stroke-width="1.0225" stroke-miterlimit="10" x1="1291.46" y1="-595.021" x2="1312.222" y2="-573.34"/>
<ellipse fill="#414042" cx="1312.222" cy="-573.34" rx="3.739" ry="3.811"/>
<ellipse fill="#414042" cx="1327.413" cy="-597.601" rx="3.739" ry="3.811"/>
<ellipse fill="#414042" cx="1256.96" cy="-612.221" rx="3.739" ry="3.811"/>
<ellipse fill="#414042" cx="1287.96" cy="-638.221" rx="3.739" ry="3.811"/>
<line fill="none" stroke="#414042" stroke-width="1.0225" stroke-miterlimit="10" x1="1312.222" y1="-573.34" x2="1325.894" y2="-597.085"/>
<line fill="none" stroke="#414042" stroke-miterlimit="10" x1="1236.897" y1="-595.721" x2="1242.46" y2="-570.721"/>
<line fill="none" stroke="#414042" stroke-miterlimit="10" x1="1229.46" y1="-638.029" x2="1261.601" y2="-645.997"/>
<line fill="none" stroke="#414042" stroke-miterlimit="10" x1="1200.46" y1="-764.221" x2="1215.46" y2="-796.721"/>
<line fill="none" stroke="#414042" stroke-miterlimit="10" x1="1267.138" y1="-716.375" x2="1293.441" y2="-751.996"/>
<line fill="none" stroke="#414042" stroke-miterlimit="10" x1="1263.96" y1="-793.221" x2="1284.46" y2="-772.221"/>
<line fill="none" stroke="#414042" stroke-miterlimit="10" x1="1233.32" y1="-709.253" x2="1265.46" y2="-717.221"/>
<line fill="none" stroke="#414042" stroke-miterlimit="10" x1="1236.46" y1="-759.721" x2="1261.96" y2="-792.721"/>
<line fill="none" stroke="#414042" stroke-width="2.2679" stroke-miterlimit="10" x1="1263.96" y1="-793.221" x2="1267.46" y2="-714.721"/>
<circle fill="#414042" cx="1293.441" cy="-751.997" r="11.187"/>
<circle fill="#414042" cx="1220.727" cy="-725.627" r="7.991"/>
<circle fill="#414042" cx="1247.727" cy="-745.627" r="7.991"/>
<circle fill="#414042" cx="1215.46" cy="-796.721" r="7.191"/>
<circle fill="#414042" cx="1201.32" cy="-730.753" r="3.691"/>
<circle fill="#414042" cx="1233.32" cy="-709.253" r="3.691"/>
<circle fill="#414042" cx="1284.46" cy="-772.221" r="3.691"/>
<circle fill="#414042" cx="1236.46" cy="-759.721" r="3.691"/>
<circle fill="#414042" cx="1299.46" cy="-795.721" r="3.691"/>
<line fill="none" stroke="#414042" stroke-width="1.8797" stroke-miterlimit="10" x1="1199.46" y1="-762.721" x2="1263.96" y2="-793.221"/>
<line fill="none" stroke="#414042" stroke-width="2.2679" stroke-miterlimit="10" x1="1268.138" y1="-713.375" x2="1200.46" y2="-764.221"/>
<circle fill="#FFFFFF" stroke="#414042" stroke-width="2" stroke-miterlimit="10" cx="1262.801" cy="-791.669" r="13.584"/>
<circle fill="#FFFFFF" stroke="#414042" stroke-width="2" stroke-miterlimit="10" cx="1291.801" cy="-595.669" r="13.584"/>
<circle fill="#FFFFFF" stroke="#414042" stroke-width="2" stroke-miterlimit="10" cx="1267.138" cy="-716.375" r="11.622"/>
<circle fill="#FFFFFF" stroke="#414042" stroke-width="2" stroke-miterlimit="10" cx="1262.138" cy="-645.375" r="11.622"/>
<circle fill="#FFFFFF" stroke="#414042" stroke-width="2" stroke-miterlimit="10" cx="1201.565" cy="-763.139" r="12.437"/>
<circle fill="#FFFFFF" stroke="#414042" stroke-width="2" stroke-miterlimit="10" cx="1236.897" cy="-595.721" r="12.437"/>
<line fill="none" stroke="#414042" stroke-miterlimit="10" x1="1236.46" y1="-759.721" x2="1249.46" y2="-744.721"/>
<circle fill="#414042" cx="1222.727" cy="-552.627" r="7.991"/>
<circle fill="#414042" cx="1242.46" cy="-570.721" r="3.691"/>
<line fill="none" stroke="#414042" stroke-miterlimit="10" x1="1220.96" y1="-723.721" x2="1198.96" y2="-731.221"/>
<line fill="none" stroke="#414042" stroke-miterlimit="10" x1="1220.96" y1="-726.721" x2="1233.32" y2="-709.253"/>
<circle fill="#414042" cx="1216.867" cy="-654.403" r="7.991"/>
<circle fill="#414042" cx="1197.46" cy="-659.529" r="3.691"/>
<circle fill="#414042" cx="1229.46" cy="-638.029" r="3.691"/>
<line fill="none" stroke="#414042" stroke-miterlimit="10" x1="1217.101" y1="-652.497" x2="1195.101" y2="-659.997"/>
<line fill="none" stroke="#414042" stroke-miterlimit="10" x1="1217.101" y1="-655.497" x2="1229.46" y2="-638.029"/>
<line fill="none" stroke="#414042" stroke-miterlimit="10" x1="1284.46" y1="-772.221" x2="1297.96" y2="-795.221"/>
<line fill="none" stroke="#414042" stroke-miterlimit="10" x1="1242.46" y1="-570.721" x2="1222.727" y2="-552.627"/>
<line fill="none" stroke="#414042" stroke-miterlimit="10" x1="1978.363" y1="-728.137" x2="1961.388" y2="-708.958"/>
<circle fill="#414042" cx="1935.156" cy="-714.315" r="7.99"/>
<circle fill="#414042" cx="1961.389" cy="-708.958" r="3.691"/>
<line fill="none" stroke="#414042" stroke-miterlimit="10" x1="1961.388" y1="-708.958" x2="1935.156" y2="-714.314"/>
<line fill="none" stroke="#414042" stroke-miterlimit="10" x1="1987.222" y1="-787.732" x2="2011.375" y2="-779.209"/>
<circle fill="#414042" cx="2016.269" cy="-752.887" r="7.991"/>
<circle fill="#414042" cx="2011.374" cy="-779.21" r="3.692"/>
<line fill="none" stroke="#414042" stroke-miterlimit="10" x1="2011.375" y1="-779.209" x2="2016.27" y2="-752.887"/>
<line fill="none" stroke="#414042" stroke-miterlimit="10" x1="1930.246" y1="-764.664" x2="1927.389" y2="-790.115"/>
<circle fill="#414042" cx="1948.946" cy="-805.994" r="7.99"/>
<circle fill="#414042" cx="1927.39" cy="-790.115" r="3.692"/>
<line fill="none" stroke="#414042" stroke-miterlimit="10" x1="1927.389" y1="-790.115" x2="1948.946" y2="-805.994"/>
<circle fill="#FFFFFF" stroke="#414042" stroke-width="2" stroke-miterlimit="10" cx="1777.714" cy="-819.659" r="13.584"/>
<circle fill="#FFFFFF" stroke="#414042" stroke-width="2" stroke-miterlimit="10" cx="1785.142" cy="-877.065" r="11.622"/>
<circle fill="#FFFFFF" stroke="#414042" stroke-width="2" stroke-miterlimit="10" cx="1734.6" cy="-853.653" r="12.437"/>
<polygon fill="#FFFFFF" stroke="#414042" stroke-width="2" stroke-miterlimit="10" points="1890.959,-914.488 1946.174,-936.571 
	1937.691,-877.713 "/>
<circle fill="#FFFFFF" stroke="#414042" stroke-width="2" stroke-miterlimit="10" cx="1937.214" cy="-878.659" r="13.584"/>
<circle fill="#FFFFFF" stroke="#414042" stroke-width="2" stroke-miterlimit="10" cx="1946.714" cy="-936.659" r="13.584"/>
<circle fill="#FFFFFF" stroke="#414042" stroke-width="2" stroke-miterlimit="10" cx="1889.714" cy="-914.659" r="13.584"/>
<polygon fill="none" stroke="#414042" stroke-width="2" stroke-miterlimit="10" points="1930.459,-765.488 1985.674,-787.571 
	1977.191,-728.713 "/>
<circle fill="#FFFFFF" stroke="#414042" stroke-width="2" stroke-miterlimit="10" cx="1976.714" cy="-729.659" r="13.584"/>
<circle fill="#FFFFFF" stroke="#414042" stroke-width="2" stroke-miterlimit="10" cx="1986.214" cy="-787.659" r="13.584"/>
<circle fill="#FFFFFF" stroke="#414042" stroke-width="2" stroke-miterlimit="10" cx="1929.214" cy="-765.659" r="13.584"/>
<circle fill="#414042" cx="1725.348" cy="-631.744" r="8.949"/>
<circle fill="#414042" cx="1743.633" cy="-670.637" r="14.084"/>
<circle fill="#414042" cx="1773.523" cy="-630.214" r="10.937"/>
<circle fill="#414042" cx="1685.407" cy="-636.106" r="13.937"/>
<circle fill="#414042" cx="1743.426" cy="-596.75" r="14.372"/>
<circle fill="#414042" cx="1701.809" cy="-606.345" r="9.741"/>
<circle fill="#414042" cx="1700.792" cy="-666.688" r="7.191"/>
<line fill="none" stroke="#414042" stroke-width="1.2076" stroke-miterlimit="10" x1="1773.138" y1="-628.175" x2="1742.96" y2="-671.721"/>
<line fill="none" stroke="#414042" stroke-width="1.0654" stroke-miterlimit="10" x1="1699.727" y1="-603.828" x2="1749.802" y2="-592.108"/>
<line fill="none" stroke="#414042" stroke-width="1.0654" stroke-miterlimit="10" x1="1775.904" y1="-630.997" x2="1698.128" y2="-603.295"/>
<line fill="none" stroke="#414042" stroke-width="1.2076" stroke-miterlimit="10" x1="1745.298" y1="-671.721" x2="1747.732" y2="-589.221"/>
<line fill="none" stroke="#414042" stroke-width="1.0854" stroke-miterlimit="10" x1="1683.96" y1="-634.721" x2="1750.96" y2="-669.221"/>
<line fill="none" stroke="#414042" stroke-width="1.0384" stroke-miterlimit="10" x1="1748.47" y1="-591.842" x2="1684.398" y2="-636.106"/>
<line fill="none" stroke="#414042" stroke-width="1.0654" stroke-miterlimit="10" x1="1700.792" y1="-668.286" x2="1725.904" y2="-627.258"/>
<line fill="none" stroke="#414042" stroke-width="0.9599" stroke-miterlimit="10" x1="1723.96" y1="-631.721" x2="1745.298" y2="-671.721"/>
<line fill="none" stroke="#414042" stroke-width="1.0654" stroke-miterlimit="10" x1="1750.96" y1="-669.221" x2="1700.792" y2="-666.688"/>
<line fill="none" stroke="#414042" stroke-width="1.0654" stroke-miterlimit="10" x1="1699.46" y1="-667.221" x2="1773.773" y2="-630.464"/>
<line fill="none" stroke="#414042" stroke-width="1.0654" stroke-miterlimit="10" x1="1773.773" y1="-630.464" x2="1748.47" y2="-591.842"/>
<line fill="none" stroke="#414042" stroke-width="1.0221" stroke-miterlimit="10" x1="1748.47" y1="-591.842" x2="1728.904" y2="-631.758"/>
<line fill="none" stroke="#414042" stroke-width="1.3469" stroke-miterlimit="10" x1="1684.398" y1="-636.106" x2="1702.46" y2="-602.221"/>
<line fill="none" stroke="#414042" stroke-width="1.0654" stroke-miterlimit="10" x1="1692.148" y1="-639.356" x2="1700.792" y2="-668.286"/>
<line fill="none" stroke="#414042" stroke-width="0.6891" stroke-miterlimit="10" x1="1683.96" y1="-634.731" x2="1725.46" y2="-630.21"/>
<line fill="none" stroke="#414042" stroke-width="0.6893" stroke-miterlimit="10" x1="1724.791" y1="-631.394" x2="1775.904" y2="-632.333"/>
<line fill="none" stroke="#414042" stroke-width="1.1284" stroke-miterlimit="10" x1="1701.058" y1="-604.095" x2="1726.46" y2="-632.221"/>
<circle fill="#414042" cx="1972.348" cy="-601.744" r="8.949"/>
<circle fill="#414042" cx="2020.523" cy="-600.214" r="10.937"/>
<circle fill="#414042" cx="1948.809" cy="-576.345" r="9.741"/>
<circle fill="#414042" cx="1947.792" cy="-636.688" r="7.191"/>
<line fill="none" stroke="#414042" stroke-width="1.2076" stroke-miterlimit="10" x1="2020.138" y1="-598.175" x2="1989.96" y2="-641.721"/>
<line fill="none" stroke="#414042" stroke-width="1.0654" stroke-miterlimit="10" x1="1946.727" y1="-573.828" x2="1996.802" y2="-562.108"/>
<line fill="none" stroke="#414042" stroke-width="1.0654" stroke-miterlimit="10" x1="2022.904" y1="-600.997" x2="1945.128" y2="-573.295"/>
<line fill="none" stroke="#414042" stroke-width="1.2076" stroke-miterlimit="10" x1="1992.298" y1="-641.721" x2="1994.732" y2="-559.221"/>
<line fill="none" stroke="#414042" stroke-width="1.0854" stroke-miterlimit="10" x1="1930.96" y1="-604.721" x2="1997.96" y2="-639.221"/>
<line fill="none" stroke="#414042" stroke-width="1.0384" stroke-miterlimit="10" x1="1995.47" y1="-561.842" x2="1931.398" y2="-606.106"/>
<line fill="none" stroke="#414042" stroke-width="1.0654" stroke-miterlimit="10" x1="1947.792" y1="-638.286" x2="1972.904" y2="-597.258"/>
<line fill="none" stroke="#414042" stroke-width="0.9599" stroke-miterlimit="10" x1="1970.96" y1="-601.721" x2="1992.298" y2="-641.721"/>
<line fill="none" stroke="#414042" stroke-width="1.0654" stroke-miterlimit="10" x1="1997.96" y1="-639.221" x2="1947.792" y2="-636.688"/>
<line fill="none" stroke="#414042" stroke-width="1.0654" stroke-miterlimit="10" x1="1946.46" y1="-637.221" x2="2020.773" y2="-600.464"/>
<line fill="none" stroke="#414042" stroke-width="1.0654" stroke-miterlimit="10" x1="2020.773" y1="-600.464" x2="1995.47" y2="-561.842"/>
<line fill="none" stroke="#414042" stroke-width="1.0221" stroke-miterlimit="10" x1="1995.47" y1="-561.842" x2="1975.904" y2="-601.758"/>
<line fill="none" stroke="#414042" stroke-width="1.3469" stroke-miterlimit="10" x1="1931.398" y1="-606.106" x2="1949.46" y2="-572.221"/>
<line fill="none" stroke="#414042" stroke-width="1.0654" stroke-miterlimit="10" x1="1939.148" y1="-609.356" x2="1947.792" y2="-638.286"/>
<line fill="none" stroke="#414042" stroke-width="0.6891" stroke-miterlimit="10" x1="1930.96" y1="-604.731" x2="1972.46" y2="-600.21"/>
<line fill="none" stroke="#414042" stroke-width="0.6893" stroke-miterlimit="10" x1="1971.791" y1="-601.394" x2="2022.904" y2="-602.333"/>
<line fill="none" stroke="#414042" stroke-width="1.1284" stroke-miterlimit="10" x1="1948.058" y1="-574.095" x2="1973.46" y2="-602.221"/>
<g>
	<path fill="#414042" d="M942.722-836.562c11.408-8.149,23.275-15.599,35.218-22.932c11.394-6.997,22.592-15.557,34.782-21.068
		c2.934-1.327,0.39-5.635-2.523-4.317c-12.192,5.513-23.38,14.078-34.782,21.068c-11.947,7.324-23.811,14.784-35.218,22.932
		C937.6-839.023,940.092-834.684,942.722-836.562L942.722-836.562z"/>
</g>
<circle fill="none" stroke="#414042" stroke-width="0.9649" stroke-miterlimit="10" cx="1021.21" cy="-882.471" r="12.75"/>
<g>
	<path fill="#414042" d="M1058.96-887.721c3.225,0,3.225-5,0-5S1055.736-887.721,1058.96-887.721L1058.96-887.721z"/>
</g>
<g>
	<path fill="#414042" d="M1083.46-877.721c3.225,0,3.225-5,0-5S1080.236-877.721,1083.46-877.721L1083.46-877.721z"/>
</g>
<g>
	<path fill="#414042" d="M1083.46-903.221c3.225,0,3.225-5,0-5S1080.236-903.221,1083.46-903.221L1083.46-903.221z"/>
</g>
<g>
	<path fill="#414042" d="M1142.96-898.721c3.225,0,3.225-5,0-5S1139.736-898.721,1142.96-898.721L1142.96-898.721z"/>
</g>
<g>
	<path fill="#414042" d="M1144.96-871.221c3.225,0,3.225-5,0-5S1141.736-871.221,1144.96-871.221L1144.96-871.221z"/>
</g>
<g>
	<path fill="#414042" d="M1096.96-840.221c3.225,0,3.225-5,0-5S1093.736-840.221,1096.96-840.221L1096.96-840.221z"/>
</g>
<line fill="none" stroke="#414042" stroke-miterlimit="10" x1="1058.96" y1="-890.221" x2="1083.46" y2="-905.721"/>
<line fill="none" stroke="#414042" stroke-miterlimit="10" x1="1083.46" y1="-905.721" x2="1083.46" y2="-880.221"/>
<line fill="none" stroke="#414042" stroke-miterlimit="10" x1="1083.46" y1="-880.221" x2="1144.96" y2="-873.721"/>
<line fill="none" stroke="#414042" stroke-miterlimit="10" x1="1144.96" y1="-873.721" x2="1096.96" y2="-842.721"/>
<line fill="none" stroke="#414042" stroke-miterlimit="10" x1="1096.96" y1="-842.721" x2="1083.46" y2="-880.221"/>
<line fill="none" stroke="#414042" stroke-miterlimit="10" x1="1144.96" y1="-873.721" x2="1142.96" y2="-901.221"/>
<line fill="none" stroke="#414042" stroke-miterlimit="10" x1="1798.46" y1="-855.221" x2="1805.96" y2="-829.221"/>
<line fill="none" stroke="#414042" stroke-miterlimit="10" x1="1737.96" y1="-877.221" x2="1717.46" y2="-881.721"/>
<line fill="none" stroke="#414042" stroke-miterlimit="10" x1="1748.46" y1="-822.221" x2="1741.46" y2="-808.221"/>
<line fill="none" stroke="#414042" stroke-width="1.2076" stroke-miterlimit="10" x1="1374.404" y1="-179.758" x2="1419.273" y2="-178.464"/>
<polygon fill="none" stroke="#414042" stroke-width="2" stroke-miterlimit="10" points="1531.459,-198.988 1586.674,-221.071 
	1578.191,-162.213 "/>
<circle fill="#FFFFFF" stroke="#414042" stroke-width="2" stroke-miterlimit="10" cx="1577.714" cy="-163.159" r="13.584"/>
<circle fill="#FFFFFF" stroke="#414042" stroke-width="2" stroke-miterlimit="10" cx="1587.214" cy="-221.159" r="13.584"/>
<circle fill="#FFFFFF" stroke="#414042" stroke-width="2" stroke-miterlimit="10" cx="1530.214" cy="-199.159" r="13.584"/>
<circle fill="#414042" cx="1916.46" cy="-910.221" r="3.691"/>
<circle fill="#414042" cx="1930.152" cy="-904.721" r="3.691"/>
<circle fill="#FFFFFF" stroke="#414042" stroke-width="2" stroke-miterlimit="10" cx="1990.633" cy="-640.637" r="14.084"/>
<circle fill="#FFFFFF" stroke="#414042" stroke-width="2" stroke-miterlimit="10" cx="1990.426" cy="-566.75" r="14.372"/>
<circle fill="#FFFFFF" stroke="#414042" stroke-width="2" stroke-miterlimit="10" cx="1932.407" cy="-606.106" r="13.937"/>
</svg>
