<!-- Generator: Adobe Illustrator 16.0.0, SVG Export Plug-In . SVG Version: 6.00 Build 0)  -->
<svg version="1.2" baseProfile="tiny" id="Layer_1" xmlns="http://www.w3.org/2000/svg" xmlns:xlink="http://www.w3.org/1999/xlink"
	 x="0px" y="0px" width="612px" height="792px" viewBox="0 0 612 792" xml:space="preserve">
<g>
	<g>
		<path d="M546.017,352.631c-12.194,0-23.514,3.737-32.885,10.123L423.7,242.092c16.734-15.177,27.261-37.08,27.261-61.397
			c0-45.707-37.185-82.892-82.892-82.892s-82.892,37.185-82.892,82.892c0,1.915,0.089,3.81,0.217,5.693l-113.616,7.251
			c-3.445-24.326-24.344-43.03-49.611-43.03c-27.681,0-50.118,22.432-50.118,50.118c0,20.654,12.501,38.391,30.35,46.062
			l-13.677,45.77c-5.368-1.346-10.98-2.069-16.76-2.069c-38.032,0-68.974,30.938-68.974,68.966c0,38.03,30.941,68.97,68.974,68.97
			c5.313,0,10.48-0.624,15.451-1.767l25.666,92.423c-20.5,4.808-35.773,23.195-35.773,45.163c0,25.632,20.78,46.412,46.405,46.412
			c19.755,0,36.612-12.347,43.311-29.738l170.96,40.013c-1.103,4.651-1.704,9.493-1.704,14.477c0,34.617,28.167,62.78,62.788,62.78
			c34.617,0,62.78-28.163,62.78-62.78c0-20.821-10.196-39.298-25.848-50.727l80.613-123.047c8.641,5.039,18.683,7.939,29.406,7.939
			c32.294,0,58.476-26.175,58.476-58.47C604.493,378.807,578.311,352.631,546.017,352.631z M158.935,534.049l53.014-52.666
			l39.392,33.231l-85.195,30.842C164.299,541.295,161.861,537.458,158.935,534.049z M216.121,477.237l14.485-14.39
			c14.4,13.328,33.657,21.484,54.825,21.484c11.702,0,22.812-2.509,32.85-6.985l5.426,11.069l-66.01,23.896L216.121,477.237z
			 M165.3,226.242l73.515,36.363l-39.597,23.891l-40.021-52.003C161.503,231.967,163.546,229.2,165.3,226.242z M244.537,265.436
			l73.911,36.559l-8.692,24.577c-7.677-2.423-15.846-3.735-24.324-3.735c-17.43,0-33.557,5.542-46.754,14.935l-36.158-46.984
			L244.537,265.436z M488.123,402.949l-97.105,1.246l-1.985-67.288L492.3,387.986C490.274,392.688,488.854,397.707,488.123,402.949z
			 M384.003,404.285l-17.844,0.229c0.003-0.31,0.023-0.616,0.023-0.927c0-34.482-21.618-63.898-52.036-75.478l8.501-24.038
			l59.264,29.313L384.003,404.285z M324.726,298.195l14.126-39.941c9.093,3.437,18.936,5.332,29.217,5.332
			c3.993,0,7.915-0.301,11.759-0.849l1.877,63.642L324.726,298.195z M334.545,256.478l-14.019,39.641l-69.701-34.477l51.22-30.903
			C310.482,241.844,321.653,250.752,334.545,256.478z M233.775,341.529c-13.094,10.912-22.668,25.892-26.809,42.996l-66.929-14.045
			c0.58-3.592,0.892-7.272,0.892-11.025c0-9.939-2.13-19.386-5.932-27.931l62.198-37.526L233.775,341.529z M139.035,375.459
			l66.897,14.039c-0.806,4.578-1.25,9.28-1.25,14.089c0,20.978,8.004,40.083,21.121,54.439l-14.904,14.806l-84.415-71.214
			C132.388,394.001,136.729,385.124,139.035,375.459z M326.347,493.801l42.459,86.617c-5.895,3.256-11.209,7.434-15.757,12.335
			l-90.092-76.004L326.347,493.801z M374.133,577.799l-42.171-86.031l54.045-19.565l2.986,101.239
			C383.8,574.283,378.82,575.763,374.133,577.799z M329.322,486.383l-5.705-11.639c23.975-12.891,40.673-37.539,42.402-66.228
			l18.103-0.232l1.701,57.646L329.322,486.383z M391.135,408.194l96.571-1.239c-0.096,1.372-0.163,2.752-0.163,4.148
			c0,5.943,0.893,11.677,2.542,17.08l-97.321,35.232L391.135,408.194z M507.657,366.993c-5.032,4.38-9.306,9.601-12.603,15.452
			l-106.228-52.544l-2.02-68.478c11.647-2.702,22.359-7.856,31.56-14.902L507.657,366.993z M285.996,192.209
			c1.742,12.475,6.264,24.067,12.929,34.13l-53.821,32.473l-76.982-38.077c2.674-6.131,4.167-12.895,4.167-20.008
			c0-0.422-0.021-0.839-0.032-1.258L285.996,192.209z M108.237,248.868c4.424,1.278,9.095,1.978,13.931,1.978
			c12.43,0,23.796-4.539,32.557-12.035l39.17,50.897l-61.268,36.966c-8.135-14.994-21.673-26.636-37.977-32.333L108.237,248.868z
			 M93.377,425.004c11.354-3.719,21.421-10.302,29.334-18.904l84.016,70.878l-52.589,52.244
			c-8.147-7.082-18.781-11.379-30.426-11.379c-1.516,0-3.013,0.078-4.492,0.221L93.377,425.004z M168.855,574.992
			c0.818-3.451,1.264-7.047,1.264-10.748c0-4.585-0.675-9.011-1.914-13.193l88.393-32l92.67,78.179
			c-4.083,5.313-7.332,11.294-9.56,17.75L168.855,574.992z M430.827,581.283c-9.325-5.494-20.177-8.66-31.76-8.66
			c-1.032,0-2.058,0.028-3.079,0.078l-3.038-103.012l99.161-35.898c4.131,9.803,10.862,18.236,19.324,24.453L430.827,581.283z"/>
	</g>
	<g>
		<path fill="none" stroke="#000000" stroke-miterlimit="10" d="M546.017,352.631c-12.194,0-23.514,3.737-32.885,10.123
			L423.7,242.092c16.734-15.177,27.261-37.08,27.261-61.397c0-45.707-37.185-82.892-82.892-82.892s-82.892,37.185-82.892,82.892
			c0,1.915,0.089,3.81,0.217,5.693l-113.616,7.251c-3.445-24.326-24.344-43.03-49.611-43.03c-27.681,0-50.118,22.432-50.118,50.118
			c0,20.654,12.501,38.391,30.35,46.062l-13.677,45.77c-5.368-1.346-10.98-2.069-16.76-2.069c-38.032,0-68.974,30.938-68.974,68.966
			c0,38.03,30.941,68.97,68.974,68.97c5.313,0,10.48-0.624,15.451-1.767l25.666,92.423c-20.5,4.808-35.773,23.195-35.773,45.163
			c0,25.632,20.78,46.412,46.405,46.412c19.755,0,36.612-12.347,43.311-29.738l170.96,40.013c-1.103,4.651-1.704,9.493-1.704,14.477
			c0,34.617,28.167,62.78,62.788,62.78c34.617,0,62.78-28.163,62.78-62.78c0-20.821-10.196-39.298-25.848-50.727l80.613-123.047
			c8.641,5.039,18.683,7.939,29.406,7.939c32.294,0,58.476-26.175,58.476-58.47C604.493,378.807,578.311,352.631,546.017,352.631z
			 M158.935,534.049l53.014-52.666l39.392,33.231l-85.195,30.842C164.299,541.295,161.861,537.458,158.935,534.049z
			 M216.121,477.237l14.485-14.39c14.4,13.328,33.657,21.484,54.825,21.484c11.702,0,22.812-2.509,32.85-6.985l5.426,11.069
			l-66.01,23.896L216.121,477.237z M165.3,226.242l73.515,36.363l-39.597,23.891l-40.021-52.003
			C161.503,231.967,163.546,229.2,165.3,226.242z M244.537,265.436l73.911,36.559l-8.692,24.577
			c-7.677-2.423-15.846-3.735-24.324-3.735c-17.43,0-33.557,5.542-46.754,14.935l-36.158-46.984L244.537,265.436z M488.123,402.949
			l-97.105,1.246l-1.985-67.288L492.3,387.986C490.274,392.688,488.854,397.707,488.123,402.949z M384.003,404.285l-17.844,0.229
			c0.003-0.31,0.023-0.616,0.023-0.927c0-34.482-21.618-63.898-52.036-75.478l8.501-24.038l59.264,29.313L384.003,404.285z
			 M324.726,298.195l14.126-39.941c9.093,3.437,18.936,5.332,29.217,5.332c3.993,0,7.915-0.301,11.759-0.849l1.877,63.642
			L324.726,298.195z M334.545,256.478l-14.019,39.641l-69.701-34.477l51.22-30.903C310.482,241.844,321.653,250.752,334.545,256.478
			z M233.775,341.529c-13.094,10.912-22.668,25.892-26.809,42.996l-66.929-14.045c0.58-3.592,0.892-7.272,0.892-11.025
			c0-9.939-2.13-19.386-5.932-27.931l62.198-37.526L233.775,341.529z M139.035,375.459l66.897,14.039
			c-0.806,4.578-1.25,9.28-1.25,14.089c0,20.978,8.004,40.083,21.121,54.439l-14.904,14.806l-84.415-71.214
			C132.388,394.001,136.729,385.124,139.035,375.459z M326.347,493.801l42.459,86.617c-5.895,3.256-11.209,7.434-15.757,12.335
			l-90.092-76.004L326.347,493.801z M374.133,577.799l-42.171-86.031l54.045-19.565l2.986,101.239
			C383.8,574.283,378.82,575.763,374.133,577.799z M329.322,486.383l-5.705-11.639c23.975-12.891,40.673-37.539,42.402-66.228
			l18.103-0.232l1.701,57.646L329.322,486.383z M391.135,408.194l96.571-1.239c-0.096,1.372-0.163,2.752-0.163,4.148
			c0,5.943,0.893,11.677,2.542,17.08l-97.321,35.232L391.135,408.194z M507.657,366.993c-5.032,4.38-9.306,9.601-12.603,15.452
			l-106.228-52.544l-2.02-68.478c11.647-2.702,22.359-7.856,31.56-14.902L507.657,366.993z M285.996,192.209
			c1.742,12.475,6.264,24.067,12.929,34.13l-53.821,32.473l-76.982-38.077c2.674-6.131,4.167-12.895,4.167-20.008
			c0-0.422-0.021-0.839-0.032-1.258L285.996,192.209z M108.237,248.868c4.424,1.278,9.095,1.978,13.931,1.978
			c12.43,0,23.796-4.539,32.557-12.035l39.17,50.897l-61.268,36.966c-8.135-14.994-21.673-26.636-37.977-32.333L108.237,248.868z
			 M93.377,425.004c11.354-3.719,21.421-10.302,29.334-18.904l84.016,70.878l-52.589,52.244
			c-8.147-7.082-18.781-11.379-30.426-11.379c-1.516,0-3.013,0.078-4.492,0.221L93.377,425.004z M168.855,574.992
			c0.818-3.451,1.264-7.047,1.264-10.748c0-4.585-0.675-9.011-1.914-13.193l88.393-32l92.67,78.179
			c-4.083,5.313-7.332,11.294-9.56,17.75L168.855,574.992z M430.827,581.283c-9.325-5.494-20.177-8.66-31.76-8.66
			c-1.032,0-2.058,0.028-3.079,0.078l-3.038-103.012l99.161-35.898c4.131,9.803,10.862,18.236,19.324,24.453L430.827,581.283z"/>
	</g>
</g>
</svg>
