<?xml version="1.0" encoding="utf-8"?>
<!-- Generator: Adobe Illustrator 16.0.0, SVG Export Plug-In . SVG Version: 6.00 Build 0)  -->
<svg version="1.2" baseProfile="tiny" id="Layer_1" xmlns="http://www.w3.org/2000/svg" xmlns:xlink="http://www.w3.org/1999/xlink"
	 x="0px" y="0px" width="612px" height="792px" viewBox="0 0 612 792" xml:space="preserve">
<g>
	<path fill="#414042" d="M375.155,403.587c0,49.547-40.166,89.717-89.724,89.717c-49.547,0-89.721-40.17-89.721-89.717
		c0-49.554,40.174-89.724,89.721-89.724C334.989,313.863,375.155,354.033,375.155,403.587z"/>
	<path fill="#414042" d="M610.99,411.104c0,35.883-29.091,64.967-64.975,64.967c-35.878,0-64.97-29.084-64.97-64.967
		c0-35.887,29.091-64.97,64.97-64.97C581.899,346.135,610.99,375.218,610.99,411.104z"/>
	<path fill="#414042" d="M170.12,564.244c0,25.632-20.773,46.412-46.408,46.412c-25.625,0-46.405-20.78-46.405-46.412
		c0-25.628,20.78-46.401,46.405-46.401C149.347,517.843,170.12,538.616,170.12,564.244z"/>
	<path fill="#414042" d="M163.934,200.727c0,23.061-18.705,41.766-41.766,41.766c-23.068,0-41.765-18.705-41.765-41.766
		c0-23.072,18.697-41.766,41.765-41.766C145.229,158.961,163.934,177.654,163.934,200.727z"/>
	
		<line fill="none" stroke="#414042" stroke-width="6.9232" stroke-miterlimit="10" x1="550.009" y1="418.322" x2="367.067" y2="171.495"/>
	
		<line fill="none" stroke="#414042" stroke-width="6.1876" stroke-miterlimit="10" x1="115.979" y1="565.794" x2="406.802" y2="633.86"/>
	
		<line fill="none" stroke="#414042" stroke-width="5.9606" stroke-miterlimit="10" x1="546.021" y1="411.104" x2="114.429" y2="567.349"/>
	
		<line fill="none" stroke="#414042" stroke-width="7.0136" stroke-miterlimit="10" x1="380.645" y1="171.495" x2="394.778" y2="650.63"/>
	
		<line fill="none" stroke="#414042" stroke-width="5.3787" stroke-miterlimit="10" x1="69.06" y1="368.167" x2="375.779" y2="183.11"/>
	
		<line fill="none" stroke="#414042" stroke-width="5.8583" stroke-miterlimit="10" x1="399.066" y1="635.407" x2="71.964" y2="359.455"/>
	
		<line fill="none" stroke="#414042" stroke-width="6.1774" stroke-miterlimit="10" x1="122.168" y1="191.44" x2="285.431" y2="403.587"/>
	
		<line fill="none" stroke="#414042" stroke-width="4.6527" stroke-miterlimit="10" x1="282.855" y1="409.61" x2="367.067" y2="171.495"/>
	
		<line fill="none" stroke="#414042" stroke-width="5.8475" stroke-miterlimit="10" x1="367.067" y1="184.104" x2="122.168" y2="199.735"/>
	
		<line fill="none" stroke="#414042" stroke-width="6.1876" stroke-miterlimit="10" x1="114.433" y1="197.63" x2="546.017" y2="411.104"/>
	
		<line fill="none" stroke="#414042" stroke-width="6.1876" stroke-miterlimit="10" x1="546.017" y1="411.104" x2="399.066" y2="635.407"/>
	
		<line fill="none" stroke="#414042" stroke-width="5.9362" stroke-miterlimit="10" x1="399.066" y1="635.407" x2="285.431" y2="403.587"/>
	
		<line fill="none" stroke="#414042" stroke-width="6.1876" stroke-miterlimit="10" x1="71.964" y1="359.455" x2="131.855" y2="575.13"/>
	
		<line fill="none" stroke="#414042" stroke-width="6.1876" stroke-miterlimit="10" x1="71.964" y1="359.455" x2="122.168" y2="191.44"/>
	
		<line fill="none" stroke="#414042" stroke-width="5.0786" stroke-miterlimit="10" x1="65.067" y1="357.342" x2="285.431" y2="403.587"/>
	
		<line fill="none" stroke="#414042" stroke-width="6.0949" stroke-miterlimit="10" x1="274.144" y1="421.226" x2="558.392" y2="408.011"/>
	
		<line fill="none" stroke="#414042" stroke-width="6.8044" stroke-miterlimit="10" x1="123.711" y1="564.244" x2="285.431" y2="403.587"/>
	<circle fill="#FFFFFF" stroke="#414042" stroke-width="11.6154" stroke-miterlimit="10" cx="368.069" cy="180.694" r="78.892"/>
	<path fill="#FFFFFF" stroke="#414042" stroke-width="11.6154" stroke-miterlimit="10" d="M457.846,635.407
		c0,32.464-26.315,58.78-58.779,58.78c-32.465,0-58.788-26.316-58.788-58.78s26.323-58.784,58.788-58.784
		C431.53,576.623,457.846,602.943,457.846,635.407z"/>
	<path fill="#FFFFFF" stroke="#414042" stroke-width="11.6154" stroke-miterlimit="10" d="M136.93,359.455
		c0,35.886-29.087,64.97-64.966,64.97c-35.886,0-64.974-29.084-64.974-64.97c0-35.875,29.087-64.966,64.974-64.966
		C107.842,294.489,136.93,323.58,136.93,359.455z"/>
</g>
</svg>
