<?xml version="1.0" encoding="utf-8"?>
<!-- Generator: Adobe Illustrator 16.0.4, SVG Export Plug-In . SVG Version: 6.00 Build 0)  -->
<!DOCTYPE svg PUBLIC "-//W3C//DTD SVG 1.1//EN" "http://www.w3.org/Graphics/SVG/1.1/DTD/svg11.dtd">
<svg version="1.1" id="Layer_1" xmlns="http://www.w3.org/2000/svg" xmlns:xlink="http://www.w3.org/1999/xlink" x="0px" y="0px"
	 width="61.387px" height="77.161px" viewBox="0 0 61.387 77.161" enable-background="new 0 0 61.387 77.161" xml:space="preserve">
<g id="idrc_symbol">
	<g>
		<path fill="#00A0CC" d="M21.701,12.809c6.365,10.428,14.345,23.502,19.237,34.619c2.625-3.069,6.783-7.631,10.449-11.338V10.161
			H20.086C20.613,11.026,21.151,11.909,21.701,12.809z"/>
		<path fill="#00A0CC" d="M42.243,50.534c1.541,3.866,2.62,7.419,3.018,10.443c0.454,3.457-0.195,6.477-1.783,8.285
			c-0.965,1.102-2.21,1.684-3.598,1.684c-1.236,0-2.506-0.635-3.576-1.787c-1.674-1.803-2.512-4.474-2.3-7.328
			c0.364-4.902,2.73-9.046,4.806-11.798C34.11,38.899,25.742,25.189,19.14,14.372c-0.885-1.45-1.746-2.86-2.565-4.211H1.387v65h50
			V40.393C47.85,44.087,44.233,48.127,42.243,50.534z"/>
		<path fill="#00A0CC" d="M38.501,67.117c0.568,0.612,1.097,0.829,1.378,0.829c0.514,0,0.952-0.217,1.344-0.662
			c0.986-1.125,1.395-3.393,1.062-5.916c-0.307-2.34-1.064-5.046-2.152-7.997c-1.489,2.304-2.887,5.306-3.138,8.682
			C36.847,64.049,37.411,65.942,38.501,67.117z"/>
	</g>
	<circle fill="#00A0CC" cx="56.887" cy="35.659" r="2.5"/>
	<path fill="#00A0CC" d="M19.387,4.16c0,1.654-1.345,3.001-3.001,3.001c-1.655,0-2.999-1.347-2.999-3.001
		c0-1.656,1.344-2.999,2.999-2.999C18.042,1.161,19.387,2.504,19.387,4.16z"/>
</g>
</svg>
