<?xml version="1.0" encoding="utf-8"?>
<!-- Generator: Adobe Illustrator 16.0.4, SVG Export Plug-In . SVG Version: 6.00 Build 0)  -->
<!DOCTYPE svg PUBLIC "-//W3C//DTD SVG 1.1//EN" "http://www.w3.org/Graphics/SVG/1.1/DTD/svg11.dtd">
<svg version="1.1" id="Layer_1" xmlns="http://www.w3.org/2000/svg" xmlns:xlink="http://www.w3.org/1999/xlink" x="0px" y="0px"
	 width="200px" height="200px" viewBox="0 0 200 200" enable-background="new 0 0 200 200" xml:space="preserve">
<g>
	
		<rect x="60.867" y="12.361" transform="matrix(0.7072 0.707 -0.707 0.7072 39.4632 -44.7588)" fill="#1B75BB" width="25.807" height="25.81"/>
	<rect x="112.622" y="10.572" fill="#D91C5C" width="29.392" height="29.386"/>
	<path fill="#00A69C" d="M34.693,25.27c0,8.803-7.139,15.933-15.945,15.933c-8.804,0-15.939-7.13-15.939-15.933
		c0-8.808,7.136-15.94,15.939-15.94C27.554,9.329,34.693,16.462,34.693,25.27"/>
	<polygon fill="#E52329" points="181.134,42.067 166.646,33.562 166.756,16.766 181.369,8.463 195.856,16.969 195.739,33.769 	"/>
	
		<rect x="5.847" y="63.849" transform="matrix(0.7072 0.707 -0.707 0.7072 59.7567 9.2165)" fill="#1B75BB" width="25.807" height="25.811"/>
	<rect x="112.622" y="62.062" fill="#D91C5C" width="29.392" height="29.386"/>
	<path fill="#00A69C" d="M197.194,75.079c0,8.804-7.14,15.934-15.945,15.934c-8.807,0-15.94-7.129-15.94-15.934
		c0-8.808,7.134-15.939,15.94-15.939C190.055,59.14,197.194,66.271,197.194,75.079"/>
	<polygon fill="#E52329" points="73.65,93.557 59.162,85.053 59.278,68.253 73.886,59.953 88.374,68.458 88.259,85.257 	"/>
	
		<rect x="168.348" y="112.539" transform="matrix(0.7072 0.707 -0.707 0.7072 141.7491 -91.4146)" fill="#1B75BB" width="25.806" height="25.811"/>
	<rect x="59.074" y="110.754" fill="#D91C5C" width="29.391" height="29.382"/>
	<path fill="#00A69C" d="M143.257,123.771c0,8.801-7.141,15.934-15.943,15.934s-15.938-7.133-15.938-15.934
		c0-8.811,7.136-15.941,15.938-15.941S143.257,114.961,143.257,123.771"/>
	<polygon fill="#E52329" points="18.632,142.248 4.145,133.739 4.259,116.944 18.87,108.646 33.357,117.148 33.241,133.948 	"/>
	<polygon fill="#1B75BB" points="181.251,192.982 163,174.731 181.251,156.482 199.5,174.727 	"/>
	<rect x="4.054" y="160.039" fill="#D91C5C" width="29.391" height="29.385"/>
	<path fill="#00A69C" d="M89.71,173.056c0,8.804-7.139,15.934-15.943,15.934c-8.803,0-15.941-7.13-15.941-15.934
		c0-8.81,7.138-15.939,15.941-15.939C82.572,157.116,89.71,164.246,89.71,173.056"/>
	<polygon fill="#E52329" points="127.198,191.533 112.711,183.028 112.824,166.229 127.437,157.929 141.922,166.434 
		141.808,183.235 	"/>
	<path fill="#404041" d="M12.991,27.981c20.721,2.397,43.046-1.846,62.579,7.081c10.033,4.583,17.622,12.459,23.226,21.79
		c5.024,8.358,8.88,17.313,15.312,24.754c0.449-0.582,0.898-1.162,1.346-1.744c-5.016-2.886-9.97-5.864-15.583-7.437
		c-1.38-0.387-1.965,1.755-0.592,2.141c5.433,1.521,10.204,4.424,15.054,7.214c1.138,0.653,2.151-0.812,1.347-1.746
		c-7.112-8.225-11.136-18.436-16.958-27.515c-5.623-8.769-13.75-15.593-23.205-19.911c-19.368-8.85-41.994-4.471-62.525-6.846
		C11.571,25.597,11.587,27.82,12.991,27.981"/>
	<path fill="#404041" d="M115.299,81.781c0.658-4.292,0.703-8.615,0.703-12.948c0.002-1.432-2.219-1.432-2.219,0
		c-0.002,4.125,0.001,8.27-0.625,12.358C112.943,82.59,115.081,83.193,115.299,81.781"/>
	<path fill="#404041" d="M72.935,173.78c30.377-1.353,59.117-16.019,82.019-35.479c10.969-9.316,19.484-20.771,23.851-34.551
		c2.321-7.32,2.637-15.041,4.718-22.352c1.286-4.503,3.104-10.72,0.595-15.095c-0.227-0.392-0.743-0.628-1.187-0.483
		c-4.318,1.424-7.431,6.032-9.569,9.808c0.64,0.27,1.281,0.54,1.923,0.809c1.687-4.945,5.485-8.134,8.236-12.404
		c-0.548,0.07-1.096,0.142-1.646,0.212c3.927,3.207,6.424,7.726,9.37,11.777c0.789,1.084,2.614,0.037,1.813-1.06
		c-3.044-4.186-5.638-8.887-9.698-12.203c-0.535-0.436-1.255-0.397-1.648,0.213c-2.894,4.485-6.679,7.713-8.454,12.906
		c-0.391,1.141,1.341,1.831,1.919,0.809c1.384-2.443,3.045-4.646,5.011-6.655c4.183-4.264,2.98,2.892,2.568,5.421
		c-0.46,2.866-1.543,5.598-1.938,8.464c-0.51,3.72-1.158,7.418-1.926,11.093c-3.252,15.557-10.845,28.255-22.384,39.091
		c-10.314,9.691-22.617,17.101-34.941,23.919c-14.882,8.237-31.659,12.902-48.63,13.657
		C71.584,171.743,71.578,173.843,72.935,173.78"/>
	<path fill="#404041" d="M185.117,180.166c-10.879-24.59-25.938-47.341-46.525-64.864c-11.163-9.502-23.799-17.566-36.239-25.274
		C91.15,83.086,78.3,74.143,64.942,72.384c-0.637-0.084-1.067,0.57-1.111,1.111c-0.419,5.139,2.942,10.494,6.32,14.106
		c0.533,0.568,1.719,0.338,1.856-0.491c0.837-5.052-2.856-8.074-4.374-12.542c-1.464-4.305,2.862-4.042,5.596-4.665
		c3.525-0.804,7.26-2.079,10.657-3.332c1.331-0.491,0.755-2.637-0.592-2.141c-3.812,1.406-7.938,2.711-11.895,3.613
		c-1.578,0.359-4.196,0.157-5.248,1.708c-3.979,5.878,4.674,10.964,3.714,16.767c0.62-0.164,1.235-0.326,1.855-0.49
		c-3-3.205-6.045-7.982-5.672-12.535l-1.108,1.109c7.153,0.943,13.855,4.507,20.123,7.921c6.392,3.48,12.646,7.211,18.816,11.067
		c12.163,7.605,24.38,15.654,35.227,25.07c19.501,16.933,33.711,39.162,44.094,62.623
		C183.779,182.592,185.692,181.461,185.117,180.166"/>
	<path fill="#404041" d="M17.393,125.073c5.792-15.121,12.461-29.615,22.72-42.262c9.367-11.544,22.1-19.615,35.358-25.988
		c10.552-5.068,21.208-8.627,32.369-11.967c8.587-2.571,19.89-5.74,24.664-14.092c0.298-0.524,0.127-1.213-0.398-1.52
		c-2.5-1.45-5.012-2.028-7.89-2.149v2.22c1.7-0.055,3.382-0.26,5.08-0.249c4.823,0.03,1.742,5.562,0.953,7.17
		c-1.34,2.726-3.082,5.332-3.771,8.326c-0.326,1.392,1.815,1.982,2.141,0.588c1.132-4.91,5.714-9.089,5.528-14.319
		c-0.179-5.022-6.84-3.839-9.932-3.736c-1.431,0.049-1.426,2.161,0,2.22c2.466,0.104,4.628,0.603,6.771,1.846
		c-0.138-0.504-0.268-1.012-0.399-1.518c-5.371,9.392-19.715,12.055-29.25,14.799c-11.395,3.278-22.351,7.922-32.865,13.405
		c-12.771,6.66-23.454,15.401-32.488,26.59c-9.468,11.725-15.393,26.097-20.733,40.046
		C14.738,125.821,16.885,126.396,17.393,125.073"/>
	<path fill="#404041" d="M69.603,127.219c13.831,0.086,27.52,2.979,39.131,10.775c5.904,3.969,10.725,9.344,14.524,15.317
		c4.45,6.993,4.812,15.829,6.552,23.712c0.711-0.195,1.424-0.394,2.141-0.59c-1.516-3.649-3.23-7.209-6.282-9.816
		c-0.783-0.664-2.234-0.055-1.858,1.083c1.175,3.54,3.881,6.814,7.438,8.101c0.42,0.15,1.076-0.086,1.255-0.509
		c1.445-3.41,3.194-6.648,4.109-10.259c0.351-1.389-1.791-1.975-2.142-0.59c-0.741,2.914-2.035,5.574-3.28,8.301
		c-0.813,1.781-4.964-4.812-5.239-5.634c-0.614,0.36-1.233,0.719-1.854,1.08c2.758,2.349,4.346,5.541,5.713,8.833
		c0.535,1.294,2.455,0.843,2.141-0.59c-1.84-8.324-2.569-16.657-6.776-24.245c-3.391-6.12-8.792-11.323-14.363-15.435
		c-11.772-8.688-26.85-11.664-41.208-11.756C68.171,124.987,68.173,127.211,69.603,127.219"/>
</g>
</svg>
